<mxfile host="app.diagrams.net" modified="2022-12-19T03:50:18.277Z" agent="5.0 (Macintosh; Intel Mac OS X 10_15_7) AppleWebKit/605.1.15 (KHTML, like Gecko) Version/16.1 Safari/605.1.15" etag="J61yhkfuCuqakTED4Z7B" version="20.6.2" type="github">
  <diagram id="hunALPwYAO61CZnnPAhh" name="Page-1">
    <mxGraphModel dx="2840" dy="733" grid="1" gridSize="10" guides="1" tooltips="1" connect="1" arrows="1" fold="1" page="1" pageScale="1" pageWidth="827" pageHeight="1169" math="0" shadow="0">
      <root>
        <mxCell id="0" />
        <mxCell id="1" parent="0" />
        <mxCell id="zgKmjXe5RocedFzESMuj-3" value="" style="edgeStyle=orthogonalEdgeStyle;rounded=0;orthogonalLoop=1;jettySize=auto;html=1;" parent="1" source="zgKmjXe5RocedFzESMuj-1" target="zgKmjXe5RocedFzESMuj-2" edge="1">
          <mxGeometry relative="1" as="geometry" />
        </mxCell>
        <mxCell id="zgKmjXe5RocedFzESMuj-1" value="spring-cloud-starter-alibaba-nacos-discovery&lt;br&gt;META-INF/spring.factories" style="rounded=0;whiteSpace=wrap;html=1;fillColor=#d5e8d4;strokeColor=#82b366;" parent="1" vertex="1">
          <mxGeometry x="655" y="860" width="280" height="60" as="geometry" />
        </mxCell>
        <mxCell id="zgKmjXe5RocedFzESMuj-6" value="" style="edgeStyle=orthogonalEdgeStyle;rounded=0;orthogonalLoop=1;jettySize=auto;html=1;fontFamily=Helvetica;fontSize=12;fontColor=none;" parent="1" source="zgKmjXe5RocedFzESMuj-2" target="zgKmjXe5RocedFzESMuj-5" edge="1">
          <mxGeometry relative="1" as="geometry" />
        </mxCell>
        <mxCell id="zgKmjXe5RocedFzESMuj-2" value="&lt;font color=&quot;#009900&quot;&gt;@Configuration&lt;br&gt;&lt;/font&gt;NacosServiceRegistryAutoConfiguration&lt;br&gt;自动配置类" style="whiteSpace=wrap;html=1;rounded=0;" parent="1" vertex="1">
          <mxGeometry x="675" y="960" width="240" height="60" as="geometry" />
        </mxCell>
        <mxCell id="zgKmjXe5RocedFzESMuj-8" value="" style="edgeStyle=orthogonalEdgeStyle;rounded=0;orthogonalLoop=1;jettySize=auto;html=1;fontFamily=Helvetica;fontSize=12;fontColor=none;dashed=1;" parent="1" source="zgKmjXe5RocedFzESMuj-5" target="zgKmjXe5RocedFzESMuj-7" edge="1">
          <mxGeometry relative="1" as="geometry" />
        </mxCell>
        <mxCell id="zgKmjXe5RocedFzESMuj-9" value="implements" style="edgeLabel;html=1;align=center;verticalAlign=middle;resizable=0;points=[];fontSize=12;fontFamily=Helvetica;fontColor=none;" parent="zgKmjXe5RocedFzESMuj-8" vertex="1" connectable="0">
          <mxGeometry x="0.0385" y="-3" relative="1" as="geometry">
            <mxPoint x="-4" y="-3" as="offset" />
          </mxGeometry>
        </mxCell>
        <mxCell id="zgKmjXe5RocedFzESMuj-14" value="" style="edgeStyle=orthogonalEdgeStyle;rounded=0;orthogonalLoop=1;jettySize=auto;html=1;fontFamily=Helvetica;fontSize=12;fontColor=none;" parent="1" source="zgKmjXe5RocedFzESMuj-5" target="zgKmjXe5RocedFzESMuj-13" edge="1">
          <mxGeometry relative="1" as="geometry" />
        </mxCell>
        <mxCell id="zgKmjXe5RocedFzESMuj-5" value="&lt;font color=&quot;#009900&quot;&gt;@Bean&lt;br&gt;&lt;/font&gt;&lt;font color=&quot;#ff0000&quot;&gt;NacosAutoServiceRegistration&lt;/font&gt;" style="whiteSpace=wrap;html=1;rounded=0;" parent="1" vertex="1">
          <mxGeometry x="685" y="1060" width="220" height="60" as="geometry" />
        </mxCell>
        <mxCell id="zgKmjXe5RocedFzESMuj-23" style="edgeStyle=orthogonalEdgeStyle;rounded=0;orthogonalLoop=1;jettySize=auto;html=1;entryX=1;entryY=0.5;entryDx=0;entryDy=0;fontFamily=Helvetica;fontSize=12;fontColor=#FF0000;dashed=1;" parent="1" source="zgKmjXe5RocedFzESMuj-7" target="zgKmjXe5RocedFzESMuj-13" edge="1">
          <mxGeometry relative="1" as="geometry">
            <Array as="points">
              <mxPoint x="1152" y="1190" />
            </Array>
          </mxGeometry>
        </mxCell>
        <mxCell id="zgKmjXe5RocedFzESMuj-24" value="override" style="edgeLabel;html=1;align=center;verticalAlign=middle;resizable=0;points=[];fontSize=12;fontFamily=Helvetica;fontColor=#000000;" parent="zgKmjXe5RocedFzESMuj-23" vertex="1" connectable="0">
          <mxGeometry x="-0.1069" y="-1" relative="1" as="geometry">
            <mxPoint as="offset" />
          </mxGeometry>
        </mxCell>
        <mxCell id="zgKmjXe5RocedFzESMuj-7" value="&lt;font color=&quot;#ff0000&quot;&gt;ApplicationListener&lt;/font&gt;&amp;lt;WebServerInitializedEvent&amp;gt;" style="whiteSpace=wrap;html=1;rounded=0;dashed=1;" parent="1" vertex="1">
          <mxGeometry x="1009" y="1060" width="286" height="60" as="geometry" />
        </mxCell>
        <mxCell id="zgKmjXe5RocedFzESMuj-18" value="bind()" style="edgeStyle=orthogonalEdgeStyle;rounded=0;orthogonalLoop=1;jettySize=auto;html=1;fontFamily=Helvetica;fontSize=12;fontColor=#FF0000;" parent="1" source="zgKmjXe5RocedFzESMuj-13" target="zgKmjXe5RocedFzESMuj-17" edge="1">
          <mxGeometry relative="1" as="geometry" />
        </mxCell>
        <mxCell id="zgKmjXe5RocedFzESMuj-13" value="&lt;font color=&quot;#009900&quot;&gt;@Override&lt;/font&gt;&lt;br&gt;AbstractAutoServiceRegistration#&lt;font color=&quot;#ff0000&quot;&gt;onApplicationEvent&lt;/font&gt;" style="whiteSpace=wrap;html=1;rounded=0;" parent="1" vertex="1">
          <mxGeometry x="630" y="1160" width="330" height="60" as="geometry" />
        </mxCell>
        <mxCell id="zgKmjXe5RocedFzESMuj-20" value="" style="edgeStyle=orthogonalEdgeStyle;rounded=0;orthogonalLoop=1;jettySize=auto;html=1;fontFamily=Helvetica;fontSize=12;fontColor=#FF0000;" parent="1" source="zgKmjXe5RocedFzESMuj-17" target="zgKmjXe5RocedFzESMuj-19" edge="1">
          <mxGeometry relative="1" as="geometry" />
        </mxCell>
        <mxCell id="zgKmjXe5RocedFzESMuj-22" value="register()" style="edgeLabel;html=1;align=center;verticalAlign=middle;resizable=0;points=[];fontSize=12;fontFamily=Helvetica;fontColor=#FF0000;" parent="zgKmjXe5RocedFzESMuj-20" vertex="1" connectable="0">
          <mxGeometry x="-0.2571" y="2" relative="1" as="geometry">
            <mxPoint as="offset" />
          </mxGeometry>
        </mxCell>
        <mxCell id="zgKmjXe5RocedFzESMuj-17" value="AbstractAutoServiceRegistration#&lt;font color=&quot;#ff0000&quot;&gt;start&lt;/font&gt;" style="whiteSpace=wrap;html=1;rounded=0;" parent="1" vertex="1">
          <mxGeometry x="680" y="1280" width="230" height="60" as="geometry" />
        </mxCell>
        <mxCell id="zgKmjXe5RocedFzESMuj-28" value="" style="edgeStyle=orthogonalEdgeStyle;rounded=0;orthogonalLoop=1;jettySize=auto;html=1;dashed=1;fontFamily=Helvetica;fontSize=12;fontColor=#FF0000;" parent="1" source="zgKmjXe5RocedFzESMuj-19" target="zgKmjXe5RocedFzESMuj-27" edge="1">
          <mxGeometry relative="1" as="geometry" />
        </mxCell>
        <mxCell id="2PmmHMX1RF9NsNLcKvbn-105" style="edgeStyle=orthogonalEdgeStyle;rounded=0;orthogonalLoop=1;jettySize=auto;html=1;exitX=0;exitY=0.5;exitDx=0;exitDy=0;entryX=0;entryY=0.5;entryDx=0;entryDy=0;fontColor=#FF0000;dashed=1;" parent="1" source="zgKmjXe5RocedFzESMuj-19" target="zgKmjXe5RocedFzESMuj-5" edge="1">
          <mxGeometry relative="1" as="geometry">
            <Array as="points">
              <mxPoint x="600" y="1430" />
              <mxPoint x="600" y="1090" />
            </Array>
          </mxGeometry>
        </mxCell>
        <mxCell id="zgKmjXe5RocedFzESMuj-19" value="NacosAutoServiceRegistration#&lt;font color=&quot;#ff0000&quot;&gt;register&lt;/font&gt;" style="whiteSpace=wrap;html=1;rounded=0;" parent="1" vertex="1">
          <mxGeometry x="675" y="1400" width="240" height="60" as="geometry" />
        </mxCell>
        <mxCell id="eIaxBUfPHbvmFYsHHjmo-70" style="edgeStyle=orthogonalEdgeStyle;rounded=0;jumpStyle=none;jumpSize=1;orthogonalLoop=1;jettySize=auto;html=1;exitX=0.5;exitY=1;exitDx=0;exitDy=0;fontColor=#FF0000;" parent="1" source="zgKmjXe5RocedFzESMuj-27" target="eIaxBUfPHbvmFYsHHjmo-63" edge="1">
          <mxGeometry relative="1" as="geometry" />
        </mxCell>
        <mxCell id="eIaxBUfPHbvmFYsHHjmo-71" style="edgeStyle=orthogonalEdgeStyle;rounded=0;jumpStyle=none;jumpSize=1;orthogonalLoop=1;jettySize=auto;html=1;exitX=1;exitY=0.5;exitDx=0;exitDy=0;fontColor=#FF0000;entryX=0;entryY=0.5;entryDx=0;entryDy=0;" parent="1" source="zgKmjXe5RocedFzESMuj-27" target="eIaxBUfPHbvmFYsHHjmo-69" edge="1">
          <mxGeometry relative="1" as="geometry" />
        </mxCell>
        <mxCell id="eIaxBUfPHbvmFYsHHjmo-79" value="创建心跳任务" style="edgeLabel;html=1;align=center;verticalAlign=middle;resizable=0;points=[];fontColor=#FF0000;" parent="eIaxBUfPHbvmFYsHHjmo-71" vertex="1" connectable="0">
          <mxGeometry x="-0.2684" y="-2" relative="1" as="geometry">
            <mxPoint y="-47" as="offset" />
          </mxGeometry>
        </mxCell>
        <mxCell id="zgKmjXe5RocedFzESMuj-27" value="namingService.registerInstance(serviceId, group, instance)&lt;br&gt;完成客户端像服务端进行调用" style="whiteSpace=wrap;html=1;rounded=0;fillColor=#dae8fc;strokeColor=#6c8ebf;" parent="1" vertex="1">
          <mxGeometry x="620" y="1520" width="350" height="60" as="geometry" />
        </mxCell>
        <mxCell id="zgKmjXe5RocedFzESMuj-32" style="edgeStyle=orthogonalEdgeStyle;rounded=0;orthogonalLoop=1;jettySize=auto;html=1;exitX=1;exitY=0;exitDx=0;exitDy=0;fontFamily=Helvetica;fontSize=12;fontColor=#000000;entryX=0;entryY=0.5;entryDx=0;entryDy=0;" parent="1" source="eIaxBUfPHbvmFYsHHjmo-45" target="zgKmjXe5RocedFzESMuj-31" edge="1">
          <mxGeometry relative="1" as="geometry">
            <mxPoint x="1345" y="1450" as="targetPoint" />
            <Array as="points">
              <mxPoint x="938" y="1670" />
              <mxPoint x="1375" y="1670" />
              <mxPoint x="1375" y="890" />
            </Array>
          </mxGeometry>
        </mxCell>
        <mxCell id="eIaxBUfPHbvmFYsHHjmo-68" style="edgeStyle=orthogonalEdgeStyle;rounded=0;orthogonalLoop=1;jettySize=auto;html=1;exitX=0.5;exitY=1;exitDx=0;exitDy=0;entryX=0.5;entryY=0;entryDx=0;entryDy=0;fontColor=#FF0000;dashed=1;jumpStyle=none;jumpSize=1;" parent="1" source="zgKmjXe5RocedFzESMuj-29" target="eIaxBUfPHbvmFYsHHjmo-45" edge="1">
          <mxGeometry relative="1" as="geometry">
            <Array as="points">
              <mxPoint x="795" y="1890" />
              <mxPoint x="910" y="1890" />
            </Array>
          </mxGeometry>
        </mxCell>
        <mxCell id="zgKmjXe5RocedFzESMuj-29" value="&lt;font color=&quot;#ff0000&quot;&gt;POST /nacos/v1/ns/instance&lt;/font&gt;&lt;br&gt;注册实例" style="whiteSpace=wrap;html=1;rounded=0;fillColor=#ffe6cc;strokeColor=#d79b00;" parent="1" vertex="1">
          <mxGeometry x="680" y="1740" width="230" height="60" as="geometry" />
        </mxCell>
        <mxCell id="zgKmjXe5RocedFzESMuj-34" value="" style="edgeStyle=orthogonalEdgeStyle;rounded=0;orthogonalLoop=1;jettySize=auto;html=1;fontFamily=Helvetica;fontSize=12;fontColor=#000000;" parent="1" source="zgKmjXe5RocedFzESMuj-31" target="zgKmjXe5RocedFzESMuj-33" edge="1">
          <mxGeometry relative="1" as="geometry" />
        </mxCell>
        <mxCell id="zgKmjXe5RocedFzESMuj-35" value="Instance instance = parseInstance(request)" style="edgeLabel;html=1;align=center;verticalAlign=middle;resizable=0;points=[];fontSize=12;fontFamily=Helvetica;fontColor=#000000;" parent="zgKmjXe5RocedFzESMuj-34" vertex="1" connectable="0">
          <mxGeometry x="-0.125" y="-1" relative="1" as="geometry">
            <mxPoint as="offset" />
          </mxGeometry>
        </mxCell>
        <mxCell id="zgKmjXe5RocedFzESMuj-31" value="&lt;font color=&quot;#000000&quot;&gt;InstanceController#&lt;/font&gt;&lt;font color=&quot;#ff0000&quot;&gt;register&lt;br&gt;服务注册&lt;br&gt;&lt;/font&gt;" style="rounded=0;whiteSpace=wrap;html=1;fontFamily=Helvetica;fontSize=12;fillColor=#dae8fc;strokeColor=#6c8ebf;" parent="1" vertex="1">
          <mxGeometry x="1545" y="860" width="220" height="60" as="geometry" />
        </mxCell>
        <mxCell id="zgKmjXe5RocedFzESMuj-37" value="" style="edgeStyle=orthogonalEdgeStyle;rounded=0;orthogonalLoop=1;jettySize=auto;html=1;fontFamily=Helvetica;fontSize=12;fontColor=#000000;" parent="1" source="zgKmjXe5RocedFzESMuj-33" target="zgKmjXe5RocedFzESMuj-36" edge="1">
          <mxGeometry relative="1" as="geometry" />
        </mxCell>
        <mxCell id="zgKmjXe5RocedFzESMuj-38" value="&lt;font color=&quot;#ff0000&quot;&gt;createEmptyService&lt;br&gt;开启心跳检测&lt;/font&gt;" style="edgeLabel;html=1;align=center;verticalAlign=middle;resizable=0;points=[];fontSize=12;fontFamily=Helvetica;fontColor=#000000;" parent="zgKmjXe5RocedFzESMuj-37" vertex="1" connectable="0">
          <mxGeometry x="-0.3652" y="-4" relative="1" as="geometry">
            <mxPoint x="37" y="-4" as="offset" />
          </mxGeometry>
        </mxCell>
        <mxCell id="zgKmjXe5RocedFzESMuj-100" value="" style="edgeStyle=orthogonalEdgeStyle;rounded=0;orthogonalLoop=1;jettySize=auto;html=1;fontFamily=Helvetica;fontSize=12;fontColor=#000000;" parent="1" source="zgKmjXe5RocedFzESMuj-33" target="zgKmjXe5RocedFzESMuj-99" edge="1">
          <mxGeometry relative="1" as="geometry" />
        </mxCell>
        <mxCell id="zgKmjXe5RocedFzESMuj-101" value="添加实例" style="edgeLabel;html=1;align=center;verticalAlign=middle;resizable=0;points=[];fontSize=12;fontFamily=Helvetica;fontColor=#000000;" parent="zgKmjXe5RocedFzESMuj-100" vertex="1" connectable="0">
          <mxGeometry x="0.05" y="-2" relative="1" as="geometry">
            <mxPoint as="offset" />
          </mxGeometry>
        </mxCell>
        <mxCell id="zgKmjXe5RocedFzESMuj-33" value="&lt;font color=&quot;#000000&quot;&gt;serviceManager.&lt;/font&gt;&lt;font color=&quot;#ff0000&quot;&gt;registerInstance&lt;/font&gt;&lt;font color=&quot;#000000&quot;&gt;(namespaceId, serviceName, instance);&lt;/font&gt;" style="whiteSpace=wrap;html=1;fillColor=#d5e8d4;rounded=0;strokeColor=#82b366;" parent="1" vertex="1">
          <mxGeometry x="1445" y="1000" width="420" height="60" as="geometry" />
        </mxCell>
        <mxCell id="zgKmjXe5RocedFzESMuj-40" value="" style="edgeStyle=orthogonalEdgeStyle;rounded=0;orthogonalLoop=1;jettySize=auto;html=1;fontFamily=Helvetica;fontSize=12;fontColor=#000000;" parent="1" source="zgKmjXe5RocedFzESMuj-36" target="zgKmjXe5RocedFzESMuj-39" edge="1">
          <mxGeometry relative="1" as="geometry" />
        </mxCell>
        <mxCell id="zgKmjXe5RocedFzESMuj-36" value="&lt;font color=&quot;#000000&quot;&gt;Service service = getService(namespaceId, serviceName)&lt;/font&gt;" style="whiteSpace=wrap;html=1;fillColor=none;fontColor=#009900;rounded=0;gradientColor=none;" parent="1" vertex="1">
          <mxGeometry x="2045" y="1000" width="350" height="60" as="geometry" />
        </mxCell>
        <mxCell id="zgKmjXe5RocedFzESMuj-46" value="" style="edgeStyle=orthogonalEdgeStyle;rounded=0;orthogonalLoop=1;jettySize=auto;html=1;fontFamily=Helvetica;fontSize=12;fontColor=#000000;" parent="1" source="zgKmjXe5RocedFzESMuj-39" target="zgKmjXe5RocedFzESMuj-45" edge="1">
          <mxGeometry relative="1" as="geometry" />
        </mxCell>
        <mxCell id="zgKmjXe5RocedFzESMuj-39" value="&lt;span style=&quot;color: rgb(0 , 0 , 0) ; background-color: rgb(255 , 255 , 255)&quot;&gt;从注册表中获取服务&lt;/span&gt;&lt;br style=&quot;color: rgb(0 , 0 , 0)&quot;&gt;&lt;span style=&quot;color: rgb(0 , 0 , 0) ; background-color: rgb(255 , 255 , 255)&quot;&gt;Service service = serviceMap.get(namespaceId)&lt;/span&gt;" style="whiteSpace=wrap;html=1;fillColor=none;fontColor=#009900;rounded=0;gradientColor=none;" parent="1" vertex="1">
          <mxGeometry x="2077.5" y="1100" width="285" height="60" as="geometry" />
        </mxCell>
        <mxCell id="zgKmjXe5RocedFzESMuj-48" value="" style="edgeStyle=orthogonalEdgeStyle;rounded=0;orthogonalLoop=1;jettySize=auto;html=1;fontFamily=Helvetica;fontSize=12;fontColor=#000000;" parent="1" source="zgKmjXe5RocedFzESMuj-45" target="zgKmjXe5RocedFzESMuj-47" edge="1">
          <mxGeometry relative="1" as="geometry" />
        </mxCell>
        <mxCell id="zgKmjXe5RocedFzESMuj-49" value="是" style="edgeLabel;html=1;align=center;verticalAlign=middle;resizable=0;points=[];fontSize=12;fontFamily=Helvetica;fontColor=#000000;" parent="zgKmjXe5RocedFzESMuj-48" vertex="1" connectable="0">
          <mxGeometry x="-0.3667" relative="1" as="geometry">
            <mxPoint as="offset" />
          </mxGeometry>
        </mxCell>
        <mxCell id="zgKmjXe5RocedFzESMuj-45" value="&lt;span style=&quot;color: rgb(0 , 0 , 0) ; background-color: rgb(255 , 255 , 255)&quot;&gt;&amp;nbsp;service == null&lt;/span&gt;" style="rhombus;whiteSpace=wrap;html=1;fillColor=none;fontColor=#009900;rounded=0;gradientColor=none;" parent="1" vertex="1">
          <mxGeometry x="2132.5" y="1200" width="175" height="80" as="geometry" />
        </mxCell>
        <mxCell id="zgKmjXe5RocedFzESMuj-51" value="" style="edgeStyle=orthogonalEdgeStyle;rounded=0;orthogonalLoop=1;jettySize=auto;html=1;fontFamily=Helvetica;fontSize=12;fontColor=#000000;" parent="1" source="zgKmjXe5RocedFzESMuj-47" target="zgKmjXe5RocedFzESMuj-50" edge="1">
          <mxGeometry relative="1" as="geometry" />
        </mxCell>
        <mxCell id="zgKmjXe5RocedFzESMuj-47" value="&lt;font color=&quot;#000000&quot;&gt;创建 Service&lt;/font&gt;" style="whiteSpace=wrap;html=1;fillColor=none;fontColor=#009900;rounded=0;gradientColor=none;" parent="1" vertex="1">
          <mxGeometry x="2160" y="1340" width="120" height="60" as="geometry" />
        </mxCell>
        <mxCell id="zgKmjXe5RocedFzESMuj-54" value="" style="edgeStyle=orthogonalEdgeStyle;rounded=0;orthogonalLoop=1;jettySize=auto;html=1;fontFamily=Helvetica;fontSize=12;fontColor=#000000;" parent="1" source="zgKmjXe5RocedFzESMuj-50" target="zgKmjXe5RocedFzESMuj-53" edge="1">
          <mxGeometry relative="1" as="geometry" />
        </mxCell>
        <mxCell id="zgKmjXe5RocedFzESMuj-55" value="加入到&amp;nbsp;serviceMap 中" style="edgeLabel;html=1;align=center;verticalAlign=middle;resizable=0;points=[];fontSize=12;fontFamily=Helvetica;fontColor=#000000;" parent="zgKmjXe5RocedFzESMuj-54" vertex="1" connectable="0">
          <mxGeometry x="-0.025" y="1" relative="1" as="geometry">
            <mxPoint as="offset" />
          </mxGeometry>
        </mxCell>
        <mxCell id="zgKmjXe5RocedFzESMuj-50" value="&lt;font color=&quot;#000000&quot;&gt;putServiceAndInit(service);&lt;/font&gt;" style="whiteSpace=wrap;html=1;fillColor=none;fontColor=#009900;rounded=0;gradientColor=none;" parent="1" vertex="1">
          <mxGeometry x="2127.5" y="1440" width="185" height="60" as="geometry" />
        </mxCell>
        <mxCell id="zgKmjXe5RocedFzESMuj-57" value="" style="edgeStyle=orthogonalEdgeStyle;rounded=0;orthogonalLoop=1;jettySize=auto;html=1;fontFamily=Helvetica;fontSize=12;fontColor=#000000;" parent="1" source="zgKmjXe5RocedFzESMuj-53" target="zgKmjXe5RocedFzESMuj-56" edge="1">
          <mxGeometry relative="1" as="geometry" />
        </mxCell>
        <mxCell id="zgKmjXe5RocedFzESMuj-58" value="启动&lt;font color=&quot;#ff0000&quot;&gt;服务端健康检查&lt;/font&gt;定时任务" style="edgeLabel;html=1;align=center;verticalAlign=middle;resizable=0;points=[];fontSize=12;fontFamily=Helvetica;fontColor=#000000;" parent="zgKmjXe5RocedFzESMuj-57" vertex="1" connectable="0">
          <mxGeometry x="-0.125" relative="1" as="geometry">
            <mxPoint as="offset" />
          </mxGeometry>
        </mxCell>
        <mxCell id="zgKmjXe5RocedFzESMuj-53" value="&lt;font color=&quot;#000000&quot;&gt;putService(service);&lt;/font&gt;&lt;br&gt;&lt;font color=&quot;#3399ff&quot;&gt;此时的 service 是空的，没有 instance 实例&lt;/font&gt;" style="whiteSpace=wrap;html=1;fillColor=none;fontColor=#009900;rounded=0;gradientColor=none;" parent="1" vertex="1">
          <mxGeometry x="2097.5" y="1580" width="245" height="60" as="geometry" />
        </mxCell>
        <mxCell id="zgKmjXe5RocedFzESMuj-60" value="" style="edgeStyle=orthogonalEdgeStyle;rounded=0;orthogonalLoop=1;jettySize=auto;html=1;fontFamily=Helvetica;fontSize=12;fontColor=#3399FF;entryX=0;entryY=0.5;entryDx=0;entryDy=0;" parent="1" source="zgKmjXe5RocedFzESMuj-56" target="eIaxBUfPHbvmFYsHHjmo-57" edge="1">
          <mxGeometry relative="1" as="geometry" />
        </mxCell>
        <mxCell id="zgKmjXe5RocedFzESMuj-61" value="开启定时任务，每 5s 执行一次" style="edgeLabel;html=1;align=center;verticalAlign=middle;resizable=0;points=[];fontSize=12;fontFamily=Helvetica;fontColor=#000000;" parent="zgKmjXe5RocedFzESMuj-60" vertex="1" connectable="0">
          <mxGeometry x="-0.12" y="1" relative="1" as="geometry">
            <mxPoint as="offset" />
          </mxGeometry>
        </mxCell>
        <mxCell id="2PmmHMX1RF9NsNLcKvbn-2" value="" style="edgeStyle=orthogonalEdgeStyle;rounded=0;orthogonalLoop=1;jettySize=auto;html=1;fontColor=#000000;" parent="1" source="zgKmjXe5RocedFzESMuj-56" target="2PmmHMX1RF9NsNLcKvbn-1" edge="1">
          <mxGeometry relative="1" as="geometry" />
        </mxCell>
        <mxCell id="2PmmHMX1RF9NsNLcKvbn-3" value="添加 listener" style="edgeLabel;html=1;align=center;verticalAlign=middle;resizable=0;points=[];fontColor=#000000;" parent="2PmmHMX1RF9NsNLcKvbn-2" vertex="1" connectable="0">
          <mxGeometry x="0.05" y="1" relative="1" as="geometry">
            <mxPoint as="offset" />
          </mxGeometry>
        </mxCell>
        <mxCell id="zgKmjXe5RocedFzESMuj-56" value="&lt;font color=&quot;#ff0000&quot;&gt;service.init()&lt;/font&gt;" style="whiteSpace=wrap;html=1;fillColor=none;fontColor=#009900;rounded=0;gradientColor=none;" parent="1" vertex="1">
          <mxGeometry x="2160" y="1720" width="120" height="60" as="geometry" />
        </mxCell>
        <mxCell id="zgKmjXe5RocedFzESMuj-67" value="" style="edgeStyle=orthogonalEdgeStyle;rounded=0;orthogonalLoop=1;jettySize=auto;html=1;fontFamily=Helvetica;fontSize=12;fontColor=#000000;exitX=0.5;exitY=1;exitDx=0;exitDy=0;" parent="1" source="eIaxBUfPHbvmFYsHHjmo-113" target="zgKmjXe5RocedFzESMuj-70" edge="1">
          <mxGeometry relative="1" as="geometry">
            <mxPoint x="2676" y="2082.75" as="sourcePoint" />
            <mxPoint x="2675.6" y="2147.75" as="targetPoint" />
            <Array as="points">
              <mxPoint x="2676" y="2172.75" />
            </Array>
          </mxGeometry>
        </mxCell>
        <mxCell id="zgKmjXe5RocedFzESMuj-68" value="循环所有实例" style="edgeLabel;html=1;align=center;verticalAlign=middle;resizable=0;points=[];fontSize=12;fontFamily=Helvetica;fontColor=#000000;" parent="zgKmjXe5RocedFzESMuj-67" vertex="1" connectable="0">
          <mxGeometry x="-0.1733" y="-1" relative="1" as="geometry">
            <mxPoint as="offset" />
          </mxGeometry>
        </mxCell>
        <mxCell id="zgKmjXe5RocedFzESMuj-78" value="" style="edgeStyle=orthogonalEdgeStyle;rounded=0;orthogonalLoop=1;jettySize=auto;html=1;fontFamily=Helvetica;fontSize=12;fontColor=#000000;" parent="1" source="zgKmjXe5RocedFzESMuj-64" target="zgKmjXe5RocedFzESMuj-77" edge="1">
          <mxGeometry relative="1" as="geometry" />
        </mxCell>
        <mxCell id="zgKmjXe5RocedFzESMuj-64" value="ClientBeatCheckTask&amp;nbsp;&lt;span style=&quot;font-family: &amp;#34;jetbrains mono&amp;#34; , monospace ; font-size: 9.8pt ; color: rgb(204 , 120 , 50)&quot;&gt;implements &lt;/span&gt;&lt;span style=&quot;font-family: &amp;#34;jetbrains mono&amp;#34; , monospace ; font-size: 9.8pt&quot;&gt;&lt;font color=&quot;#000000&quot;&gt;Runnable&lt;/font&gt;&lt;/span&gt;" style="whiteSpace=wrap;html=1;fillColor=#dae8fc;rounded=0;strokeColor=#6c8ebf;" parent="1" vertex="1">
          <mxGeometry x="2524.35" y="1840" width="302.5" height="40" as="geometry" />
        </mxCell>
        <mxCell id="zgKmjXe5RocedFzESMuj-72" value="" style="edgeStyle=orthogonalEdgeStyle;rounded=0;orthogonalLoop=1;jettySize=auto;html=1;fontFamily=Helvetica;fontSize=12;fontColor=#000000;" parent="1" source="zgKmjXe5RocedFzESMuj-70" target="zgKmjXe5RocedFzESMuj-71" edge="1">
          <mxGeometry relative="1" as="geometry" />
        </mxCell>
        <mxCell id="zgKmjXe5RocedFzESMuj-73" value="是" style="edgeLabel;html=1;align=center;verticalAlign=middle;resizable=0;points=[];fontSize=12;fontFamily=Helvetica;fontColor=#000000;" parent="zgKmjXe5RocedFzESMuj-72" vertex="1" connectable="0">
          <mxGeometry x="-0.32" y="-3" relative="1" as="geometry">
            <mxPoint x="3" y="3" as="offset" />
          </mxGeometry>
        </mxCell>
        <mxCell id="zgKmjXe5RocedFzESMuj-79" style="edgeStyle=orthogonalEdgeStyle;rounded=0;orthogonalLoop=1;jettySize=auto;html=1;exitX=1;exitY=0.5;exitDx=0;exitDy=0;fontFamily=Helvetica;fontSize=12;fontColor=#000000;entryX=1;entryY=0.5;entryDx=0;entryDy=0;" parent="1" source="zgKmjXe5RocedFzESMuj-70" target="zgKmjXe5RocedFzESMuj-81" edge="1">
          <mxGeometry relative="1" as="geometry">
            <mxPoint x="2820.6" y="2459.25" as="targetPoint" />
            <Array as="points">
              <mxPoint x="2830.6" y="2242.25" />
              <mxPoint x="2830.6" y="2444.25" />
            </Array>
          </mxGeometry>
        </mxCell>
        <mxCell id="zgKmjXe5RocedFzESMuj-86" value="否" style="edgeLabel;html=1;align=center;verticalAlign=middle;resizable=0;points=[];fontSize=12;fontFamily=Helvetica;fontColor=#000000;" parent="zgKmjXe5RocedFzESMuj-79" vertex="1" connectable="0">
          <mxGeometry x="-0.1805" y="3" relative="1" as="geometry">
            <mxPoint x="-4" as="offset" />
          </mxGeometry>
        </mxCell>
        <mxCell id="zgKmjXe5RocedFzESMuj-70" value="当前时间 - &lt;font color=&quot;#ff0000&quot;&gt;最后一次心跳&lt;/font&gt;时间 &amp;gt; &lt;font color=&quot;#ff0000&quot;&gt;15s&lt;/font&gt;&lt;br&gt;lastBeat" style="rhombus;whiteSpace=wrap;html=1;fontFamily=Helvetica;fontSize=12;fillColor=#fff2cc;strokeColor=#d6b656;" parent="1" vertex="1">
          <mxGeometry x="2558.1" y="2204.25" width="231.9" height="78.5" as="geometry" />
        </mxCell>
        <mxCell id="zgKmjXe5RocedFzESMuj-71" value="instance.setHealthy(false);" style="whiteSpace=wrap;html=1;fillColor=#f8cecc;strokeColor=#b85450;" parent="1" vertex="1">
          <mxGeometry x="2583.1" y="2339.25" width="185" height="60" as="geometry" />
        </mxCell>
        <mxCell id="eIaxBUfPHbvmFYsHHjmo-128" style="edgeStyle=orthogonalEdgeStyle;rounded=0;jumpStyle=none;jumpSize=1;orthogonalLoop=1;jettySize=auto;html=1;exitX=0.5;exitY=1;exitDx=0;exitDy=0;entryX=0.5;entryY=0;entryDx=0;entryDy=0;fontColor=#000000;" parent="1" source="zgKmjXe5RocedFzESMuj-77" target="eIaxBUfPHbvmFYsHHjmo-127" edge="1">
          <mxGeometry relative="1" as="geometry" />
        </mxCell>
        <mxCell id="zgKmjXe5RocedFzESMuj-77" value="&lt;font color=&quot;#000000&quot;&gt;run();&lt;/font&gt;" style="whiteSpace=wrap;html=1;fillColor=#dae8fc;rounded=0;strokeColor=#6c8ebf;" parent="1" vertex="1">
          <mxGeometry x="2615.6" y="1920" width="120" height="60" as="geometry" />
        </mxCell>
        <mxCell id="zgKmjXe5RocedFzESMuj-85" value="" style="edgeStyle=orthogonalEdgeStyle;rounded=0;orthogonalLoop=1;jettySize=auto;html=1;fontFamily=Helvetica;fontSize=12;fontColor=#000000;entryX=0.5;entryY=0;entryDx=0;entryDy=0;" parent="1" source="zgKmjXe5RocedFzESMuj-81" target="zgKmjXe5RocedFzESMuj-87" edge="1">
          <mxGeometry relative="1" as="geometry">
            <mxPoint x="2675.6" y="2499.25" as="targetPoint" />
          </mxGeometry>
        </mxCell>
        <mxCell id="zgKmjXe5RocedFzESMuj-81" value="循环所有实例" style="text;html=1;strokeColor=none;fillColor=none;align=center;verticalAlign=middle;whiteSpace=wrap;rounded=0;fontFamily=Helvetica;fontSize=12;fontColor=#000000;" parent="1" vertex="1">
          <mxGeometry x="2625.6" y="2429.25" width="100" height="30" as="geometry" />
        </mxCell>
        <mxCell id="zgKmjXe5RocedFzESMuj-82" value="" style="edgeStyle=orthogonalEdgeStyle;rounded=0;orthogonalLoop=1;jettySize=auto;html=1;fontFamily=Helvetica;fontSize=12;fontColor=#000000;endArrow=none;" parent="1" source="zgKmjXe5RocedFzESMuj-71" target="zgKmjXe5RocedFzESMuj-81" edge="1">
          <mxGeometry relative="1" as="geometry">
            <mxPoint x="2675.6" y="2414.25" as="sourcePoint" />
            <mxPoint x="2675.6" y="2494.25" as="targetPoint" />
          </mxGeometry>
        </mxCell>
        <mxCell id="zgKmjXe5RocedFzESMuj-90" value="" style="edgeStyle=orthogonalEdgeStyle;rounded=0;orthogonalLoop=1;jettySize=auto;html=1;fontFamily=Helvetica;fontSize=12;fontColor=#000000;" parent="1" source="zgKmjXe5RocedFzESMuj-87" target="zgKmjXe5RocedFzESMuj-89" edge="1">
          <mxGeometry relative="1" as="geometry" />
        </mxCell>
        <mxCell id="zgKmjXe5RocedFzESMuj-91" value="否" style="edgeLabel;html=1;align=center;verticalAlign=middle;resizable=0;points=[];fontSize=12;fontFamily=Helvetica;fontColor=#000000;" parent="zgKmjXe5RocedFzESMuj-90" vertex="1" connectable="0">
          <mxGeometry x="-0.1111" relative="1" as="geometry">
            <mxPoint as="offset" />
          </mxGeometry>
        </mxCell>
        <mxCell id="zgKmjXe5RocedFzESMuj-87" value="instance.isMarked()" style="rhombus;whiteSpace=wrap;html=1;fontFamily=Helvetica;fontSize=12;fillColor=#fff2cc;strokeColor=#d6b656;" parent="1" vertex="1">
          <mxGeometry x="2598.1" y="2479.25" width="155" height="70" as="geometry" />
        </mxCell>
        <mxCell id="zgKmjXe5RocedFzESMuj-93" value="" style="edgeStyle=orthogonalEdgeStyle;rounded=0;orthogonalLoop=1;jettySize=auto;html=1;fontFamily=Helvetica;fontSize=12;fontColor=#000000;" parent="1" source="zgKmjXe5RocedFzESMuj-89" target="zgKmjXe5RocedFzESMuj-92" edge="1">
          <mxGeometry relative="1" as="geometry" />
        </mxCell>
        <mxCell id="zgKmjXe5RocedFzESMuj-94" value="是" style="edgeLabel;html=1;align=center;verticalAlign=middle;resizable=0;points=[];fontSize=12;fontFamily=Helvetica;fontColor=#000000;" parent="zgKmjXe5RocedFzESMuj-93" vertex="1" connectable="0">
          <mxGeometry x="-0.2" relative="1" as="geometry">
            <mxPoint as="offset" />
          </mxGeometry>
        </mxCell>
        <mxCell id="zgKmjXe5RocedFzESMuj-89" value="当前时间 - &lt;font color=&quot;#ff0000&quot;&gt;最后一次心跳&lt;/font&gt;时间 &amp;gt; &lt;font color=&quot;#ff0000&quot;&gt;30s&lt;/font&gt;" style="rhombus;whiteSpace=wrap;html=1;fillColor=#fff2cc;strokeColor=#d6b656;" parent="1" vertex="1">
          <mxGeometry x="2553.1" y="2590.75" width="245" height="86" as="geometry" />
        </mxCell>
        <mxCell id="zgKmjXe5RocedFzESMuj-95" style="edgeStyle=orthogonalEdgeStyle;rounded=0;orthogonalLoop=1;jettySize=auto;html=1;exitX=0;exitY=0.5;exitDx=0;exitDy=0;fontFamily=Helvetica;fontSize=12;fontColor=#000000;entryX=0;entryY=0.5;entryDx=0;entryDy=0;" parent="1" source="zgKmjXe5RocedFzESMuj-92" target="zgKmjXe5RocedFzESMuj-77" edge="1">
          <mxGeometry relative="1" as="geometry">
            <mxPoint x="2450.6" y="2250" as="targetPoint" />
            <Array as="points">
              <mxPoint x="2521" y="2757" />
              <mxPoint x="2521" y="1950" />
            </Array>
          </mxGeometry>
        </mxCell>
        <mxCell id="zgKmjXe5RocedFzESMuj-97" style="edgeStyle=orthogonalEdgeStyle;rounded=0;orthogonalLoop=1;jettySize=auto;html=1;exitX=1;exitY=0.5;exitDx=0;exitDy=0;entryX=0;entryY=0.5;entryDx=0;entryDy=0;fontFamily=Helvetica;fontSize=12;fontColor=#000000;dashed=1;" parent="1" source="zgKmjXe5RocedFzESMuj-92" target="zgKmjXe5RocedFzESMuj-96" edge="1">
          <mxGeometry relative="1" as="geometry" />
        </mxCell>
        <mxCell id="zgKmjXe5RocedFzESMuj-98" value="async" style="edgeLabel;html=1;align=center;verticalAlign=middle;resizable=0;points=[];fontSize=12;fontFamily=Helvetica;fontColor=#000000;" parent="zgKmjXe5RocedFzESMuj-97" vertex="1" connectable="0">
          <mxGeometry x="0.0133" y="1" relative="1" as="geometry">
            <mxPoint as="offset" />
          </mxGeometry>
        </mxCell>
        <mxCell id="zgKmjXe5RocedFzESMuj-92" value="deleteIp(instance)&lt;br&gt;服务剔除" style="whiteSpace=wrap;html=1;fillColor=#dae8fc;strokeColor=#6c8ebf;" parent="1" vertex="1">
          <mxGeometry x="2615.6" y="2726.75" width="120" height="60" as="geometry" />
        </mxCell>
        <mxCell id="zgKmjXe5RocedFzESMuj-96" value="&lt;font color=&quot;#ff0000&quot;&gt;DELETE /nacos/v1/ns/instance&lt;br&gt;&lt;/font&gt;删除实例" style="whiteSpace=wrap;html=1;rounded=0;fillColor=#ffe6cc;strokeColor=#d79b00;" parent="1" vertex="1">
          <mxGeometry x="2810.6" y="2726.75" width="230" height="60" as="geometry" />
        </mxCell>
        <mxCell id="zgKmjXe5RocedFzESMuj-108" style="edgeStyle=orthogonalEdgeStyle;rounded=0;orthogonalLoop=1;jettySize=auto;html=1;exitX=0.5;exitY=1;exitDx=0;exitDy=0;entryX=0.5;entryY=0;entryDx=0;entryDy=0;fontFamily=Helvetica;fontSize=12;fontColor=#000000;" parent="1" source="zgKmjXe5RocedFzESMuj-99" target="zgKmjXe5RocedFzESMuj-107" edge="1">
          <mxGeometry relative="1" as="geometry" />
        </mxCell>
        <mxCell id="zgKmjXe5RocedFzESMuj-99" value="&lt;font color=&quot;#ff0000&quot;&gt;addInstance&lt;/font&gt;&lt;font color=&quot;#000000&quot;&gt;(namespaceId, serviceName, instance.isEphemeral(), instance);&lt;/font&gt;" style="whiteSpace=wrap;html=1;fillColor=none;fontColor=#009900;rounded=0;gradientColor=none;" parent="1" vertex="1">
          <mxGeometry x="1440" y="1110" width="430" height="70" as="geometry" />
        </mxCell>
        <mxCell id="zgKmjXe5RocedFzESMuj-126" style="edgeStyle=orthogonalEdgeStyle;rounded=0;orthogonalLoop=1;jettySize=auto;html=1;exitX=0.5;exitY=1;exitDx=0;exitDy=0;fontFamily=Helvetica;fontSize=12;fontColor=#FF0000;" parent="1" source="zgKmjXe5RocedFzESMuj-102" target="zgKmjXe5RocedFzESMuj-125" edge="1">
          <mxGeometry relative="1" as="geometry" />
        </mxCell>
        <mxCell id="zgKmjXe5RocedFzESMuj-102" value="&lt;font color=&quot;#000000&quot;&gt;List&amp;lt;Instance&amp;gt; instanceList = addIpAddresses(service, ephemeral, ips);&lt;/font&gt;" style="whiteSpace=wrap;html=1;fillColor=none;fontColor=#009900;rounded=0;gradientColor=none;" parent="1" vertex="1">
          <mxGeometry x="1455" y="1460" width="400" height="65" as="geometry" />
        </mxCell>
        <mxCell id="zgKmjXe5RocedFzESMuj-122" value="" style="edgeStyle=orthogonalEdgeStyle;rounded=0;orthogonalLoop=1;jettySize=auto;html=1;fontFamily=Helvetica;fontSize=12;fontColor=#000000;entryX=0.5;entryY=0;entryDx=0;entryDy=0;" parent="1" source="zgKmjXe5RocedFzESMuj-104" target="zgKmjXe5RocedFzESMuj-124" edge="1">
          <mxGeometry relative="1" as="geometry">
            <mxPoint x="1655" y="1803.75" as="targetPoint" />
          </mxGeometry>
        </mxCell>
        <mxCell id="zgKmjXe5RocedFzESMuj-123" value="&lt;span style=&quot;font-size: 13.0667px&quot;&gt;&lt;font color=&quot;#ff0000&quot;&gt;mapConsistencyService(key)&lt;/font&gt;.put(key, value);&lt;/span&gt;" style="edgeLabel;html=1;align=center;verticalAlign=middle;resizable=0;points=[];fontSize=12;fontFamily=Helvetica;fontColor=#000000;" parent="zgKmjXe5RocedFzESMuj-122" vertex="1" connectable="0">
          <mxGeometry x="0.0954" relative="1" as="geometry">
            <mxPoint as="offset" />
          </mxGeometry>
        </mxCell>
        <mxCell id="zgKmjXe5RocedFzESMuj-104" value="&lt;font color=&quot;#ff0000&quot;&gt;DelegateConsistencyServiceImpl&lt;/font&gt;&lt;font color=&quot;#000000&quot;&gt;#put&lt;/font&gt;" style="whiteSpace=wrap;html=1;fillColor=none;fontColor=#009900;rounded=0;gradientColor=none;" parent="1" vertex="1">
          <mxGeometry x="1510" y="1620" width="290" height="60" as="geometry" />
        </mxCell>
        <mxCell id="zgKmjXe5RocedFzESMuj-112" style="edgeStyle=orthogonalEdgeStyle;rounded=0;orthogonalLoop=1;jettySize=auto;html=1;exitX=0.5;exitY=1;exitDx=0;exitDy=0;entryX=0.5;entryY=0;entryDx=0;entryDy=0;fontFamily=Helvetica;fontSize=12;fontColor=#FF0000;" parent="1" source="zgKmjXe5RocedFzESMuj-107" target="zgKmjXe5RocedFzESMuj-111" edge="1">
          <mxGeometry relative="1" as="geometry" />
        </mxCell>
        <mxCell id="zgKmjXe5RocedFzESMuj-107" value="&lt;font color=&quot;#000000&quot;&gt;String &lt;/font&gt;key&lt;font color=&quot;#000000&quot;&gt; = KeyBuilder.buildInstanceListKey(namespaceId, serviceName, ephemeral);&lt;/font&gt;" style="rounded=0;whiteSpace=wrap;html=1;fontFamily=Helvetica;fontSize=12;fontColor=#FF0000;fillColor=none;gradientColor=none;" parent="1" vertex="1">
          <mxGeometry x="1415" y="1220" width="480" height="60" as="geometry" />
        </mxCell>
        <mxCell id="zgKmjXe5RocedFzESMuj-113" style="edgeStyle=orthogonalEdgeStyle;rounded=0;orthogonalLoop=1;jettySize=auto;html=1;exitX=0.5;exitY=1;exitDx=0;exitDy=0;fontFamily=Helvetica;fontSize=12;fontColor=#FF0000;" parent="1" source="zgKmjXe5RocedFzESMuj-111" target="zgKmjXe5RocedFzESMuj-102" edge="1">
          <mxGeometry relative="1" as="geometry" />
        </mxCell>
        <mxCell id="zgKmjXe5RocedFzESMuj-114" value="key = com.alibaba.nacos.naming.iplist.ephemeral.{{namespaceId}}##{{serviceName}}" style="edgeLabel;html=1;align=center;verticalAlign=middle;resizable=0;points=[];fontSize=12;fontFamily=Helvetica;fontColor=#FF0000;" parent="zgKmjXe5RocedFzESMuj-113" vertex="1" connectable="0">
          <mxGeometry x="-0.0909" y="1" relative="1" as="geometry">
            <mxPoint y="14" as="offset" />
          </mxGeometry>
        </mxCell>
        <mxCell id="zgKmjXe5RocedFzESMuj-117" value="是" style="edgeLabel;html=1;align=center;verticalAlign=middle;resizable=0;points=[];fontSize=12;fontFamily=Helvetica;fontColor=#000000;" parent="zgKmjXe5RocedFzESMuj-113" vertex="1" connectable="0">
          <mxGeometry x="-0.5909" y="-2" relative="1" as="geometry">
            <mxPoint as="offset" />
          </mxGeometry>
        </mxCell>
        <mxCell id="zgKmjXe5RocedFzESMuj-115" style="edgeStyle=orthogonalEdgeStyle;rounded=0;orthogonalLoop=1;jettySize=auto;html=1;exitX=1;exitY=0.5;exitDx=0;exitDy=0;fontFamily=Helvetica;fontSize=12;fontColor=#FF0000;entryX=1;entryY=0.5;entryDx=0;entryDy=0;" parent="1" source="zgKmjXe5RocedFzESMuj-111" target="zgKmjXe5RocedFzESMuj-125" edge="1">
          <mxGeometry relative="1" as="geometry">
            <mxPoint x="1955" y="1510" as="targetPoint" />
            <Array as="points">
              <mxPoint x="1955" y="1345" />
              <mxPoint x="1955" y="1578" />
            </Array>
          </mxGeometry>
        </mxCell>
        <mxCell id="zgKmjXe5RocedFzESMuj-116" value="key = com.alibaba.nacos.naming.iplist.{{namespaceId}}##{{serviceName}}" style="edgeLabel;html=1;align=center;verticalAlign=middle;resizable=0;points=[];fontSize=12;fontFamily=Helvetica;fontColor=#FF0000;" parent="zgKmjXe5RocedFzESMuj-115" vertex="1" connectable="0">
          <mxGeometry x="0.0756" y="-1" relative="1" as="geometry">
            <mxPoint x="-29" y="-73" as="offset" />
          </mxGeometry>
        </mxCell>
        <mxCell id="zgKmjXe5RocedFzESMuj-118" value="否" style="edgeLabel;html=1;align=center;verticalAlign=middle;resizable=0;points=[];fontSize=12;fontFamily=Helvetica;fontColor=#000000;" parent="zgKmjXe5RocedFzESMuj-115" vertex="1" connectable="0">
          <mxGeometry x="-0.7108" y="-1" relative="1" as="geometry">
            <mxPoint as="offset" />
          </mxGeometry>
        </mxCell>
        <mxCell id="zgKmjXe5RocedFzESMuj-111" value="是否是临时实例" style="rhombus;whiteSpace=wrap;html=1;fontFamily=Helvetica;fontSize=12;fillColor=#fff2cc;strokeColor=#d6b656;" parent="1" vertex="1">
          <mxGeometry x="1580" y="1310" width="150" height="70" as="geometry" />
        </mxCell>
        <mxCell id="zgKmjXe5RocedFzESMuj-129" value="" style="edgeStyle=orthogonalEdgeStyle;rounded=0;orthogonalLoop=1;jettySize=auto;html=1;fontFamily=Helvetica;fontSize=12;fontColor=#FF0000;" parent="1" source="zgKmjXe5RocedFzESMuj-124" target="zgKmjXe5RocedFzESMuj-128" edge="1">
          <mxGeometry relative="1" as="geometry" />
        </mxCell>
        <mxCell id="zgKmjXe5RocedFzESMuj-130" value="是" style="edgeLabel;html=1;align=center;verticalAlign=middle;resizable=0;points=[];fontSize=12;fontFamily=Helvetica;fontColor=#000000;" parent="zgKmjXe5RocedFzESMuj-129" vertex="1" connectable="0">
          <mxGeometry x="-0.225" relative="1" as="geometry">
            <mxPoint as="offset" />
          </mxGeometry>
        </mxCell>
        <mxCell id="zgKmjXe5RocedFzESMuj-124" value="是否临时实例" style="rhombus;whiteSpace=wrap;html=1;fontFamily=Helvetica;fontSize=12;fillColor=#fff2cc;strokeColor=#d6b656;" parent="1" vertex="1">
          <mxGeometry x="1572.5" y="1750" width="165" height="70" as="geometry" />
        </mxCell>
        <mxCell id="zgKmjXe5RocedFzESMuj-127" style="edgeStyle=orthogonalEdgeStyle;rounded=0;orthogonalLoop=1;jettySize=auto;html=1;exitX=0.5;exitY=1;exitDx=0;exitDy=0;entryX=0.5;entryY=0;entryDx=0;entryDy=0;fontFamily=Helvetica;fontSize=12;fontColor=#FF0000;" parent="1" source="zgKmjXe5RocedFzESMuj-125" target="zgKmjXe5RocedFzESMuj-104" edge="1">
          <mxGeometry relative="1" as="geometry" />
        </mxCell>
        <mxCell id="zgKmjXe5RocedFzESMuj-125" value="&lt;span style=&quot;background-color: rgb(255 , 255 , 255)&quot;&gt;consistencyService.put&lt;/span&gt;&lt;span style=&quot;color: rgb(0 , 0 , 0) ; background-color: rgb(255 , 255 , 255)&quot;&gt;(key, instances);&lt;/span&gt;" style="text;html=1;strokeColor=none;fillColor=none;align=center;verticalAlign=middle;whiteSpace=wrap;rounded=0;fontFamily=Helvetica;fontSize=12;fontColor=#FF0000;" parent="1" vertex="1">
          <mxGeometry x="1535" y="1560" width="240" height="35" as="geometry" />
        </mxCell>
        <mxCell id="zgKmjXe5RocedFzESMuj-135" value="" style="edgeStyle=orthogonalEdgeStyle;rounded=0;orthogonalLoop=1;jettySize=auto;html=1;fontFamily=Helvetica;fontSize=12;fontColor=#000000;dashed=1;" parent="1" source="zgKmjXe5RocedFzESMuj-128" target="zgKmjXe5RocedFzESMuj-134" edge="1">
          <mxGeometry relative="1" as="geometry" />
        </mxCell>
        <mxCell id="zgKmjXe5RocedFzESMuj-136" value="implements" style="edgeLabel;html=1;align=center;verticalAlign=middle;resizable=0;points=[];fontSize=12;fontFamily=Helvetica;fontColor=#000000;" parent="zgKmjXe5RocedFzESMuj-135" vertex="1" connectable="0">
          <mxGeometry x="-0.0492" y="-2" relative="1" as="geometry">
            <mxPoint as="offset" />
          </mxGeometry>
        </mxCell>
        <mxCell id="i_V08WtguQDwfHYmfHOG-2" value="" style="edgeStyle=orthogonalEdgeStyle;rounded=0;orthogonalLoop=1;jettySize=auto;html=1;" parent="1" source="zgKmjXe5RocedFzESMuj-128" target="i_V08WtguQDwfHYmfHOG-1" edge="1">
          <mxGeometry relative="1" as="geometry" />
        </mxCell>
        <mxCell id="i_V08WtguQDwfHYmfHOG-3" value="onPut(key, value);" style="edgeLabel;html=1;align=center;verticalAlign=middle;resizable=0;points=[];" parent="i_V08WtguQDwfHYmfHOG-2" vertex="1" connectable="0">
          <mxGeometry x="-0.15" y="-1" relative="1" as="geometry">
            <mxPoint as="offset" />
          </mxGeometry>
        </mxCell>
        <mxCell id="eIaxBUfPHbvmFYsHHjmo-165" style="edgeStyle=orthogonalEdgeStyle;rounded=0;jumpStyle=none;jumpSize=1;orthogonalLoop=1;jettySize=auto;html=1;exitX=1;exitY=0.5;exitDx=0;exitDy=0;entryX=0;entryY=0.5;entryDx=0;entryDy=0;fontColor=#FF0000;" parent="1" source="zgKmjXe5RocedFzESMuj-128" target="eIaxBUfPHbvmFYsHHjmo-163" edge="1">
          <mxGeometry relative="1" as="geometry" />
        </mxCell>
        <mxCell id="eIaxBUfPHbvmFYsHHjmo-166" value="同步信息给其他服务器" style="edgeLabel;html=1;align=center;verticalAlign=middle;resizable=0;points=[];fontColor=#FF0000;" parent="eIaxBUfPHbvmFYsHHjmo-165" vertex="1" connectable="0">
          <mxGeometry x="-0.0048" y="3" relative="1" as="geometry">
            <mxPoint as="offset" />
          </mxGeometry>
        </mxCell>
        <mxCell id="zgKmjXe5RocedFzESMuj-128" value="&lt;font color=&quot;#ff0000&quot;&gt;DistroConsistencyServiceImpl&lt;/font&gt;&lt;font color=&quot;#000000&quot;&gt;.put(key, value);&lt;br&gt;&lt;/font&gt;" style="whiteSpace=wrap;html=1;fillColor=#d5e8d4;strokeColor=#82b366;" parent="1" vertex="1">
          <mxGeometry x="1522.5" y="1880" width="265" height="60" as="geometry" />
        </mxCell>
        <mxCell id="zgKmjXe5RocedFzESMuj-134" value="&lt;span style=&quot;color: rgb(0 , 0 , 0)&quot;&gt;EphemeralConsistencyService&lt;/span&gt;" style="whiteSpace=wrap;html=1;fillColor=none;strokeColor=#000000;fontColor=#FF0000;gradientColor=none;dashed=1;" parent="1" vertex="1">
          <mxGeometry x="1227" y="1880" width="195" height="60" as="geometry" />
        </mxCell>
        <mxCell id="2PmmHMX1RF9NsNLcKvbn-5" value="" style="edgeStyle=orthogonalEdgeStyle;rounded=0;orthogonalLoop=1;jettySize=auto;html=1;fontColor=#FF0000;" parent="1" source="i_V08WtguQDwfHYmfHOG-1" target="2PmmHMX1RF9NsNLcKvbn-4" edge="1">
          <mxGeometry relative="1" as="geometry" />
        </mxCell>
        <mxCell id="2PmmHMX1RF9NsNLcKvbn-28" style="edgeStyle=orthogonalEdgeStyle;rounded=0;orthogonalLoop=1;jettySize=auto;html=1;exitX=0;exitY=0.5;exitDx=0;exitDy=0;entryX=0;entryY=0.5;entryDx=0;entryDy=0;dashed=1;dashPattern=1 1;fontColor=#3399FF;" parent="1" source="i_V08WtguQDwfHYmfHOG-1" target="2PmmHMX1RF9NsNLcKvbn-25" edge="1">
          <mxGeometry relative="1" as="geometry">
            <Array as="points">
              <mxPoint x="1150" y="2040" />
              <mxPoint x="1150" y="2472" />
            </Array>
          </mxGeometry>
        </mxCell>
        <mxCell id="i_V08WtguQDwfHYmfHOG-1" value="&lt;font color=&quot;#3399ff&quot;&gt;dataStore.put(key, datum);&lt;/font&gt;&lt;br&gt;&lt;font color=&quot;#000000&quot;&gt;加入到 dataMap 中&lt;/font&gt;&lt;br&gt;&lt;span style=&quot;color: rgb(0 , 0 , 0)&quot;&gt;datum 就是 instances&lt;/span&gt;&lt;font color=&quot;#000000&quot;&gt;&lt;br&gt;&lt;/font&gt;" style="whiteSpace=wrap;html=1;fillColor=none;strokeColor=#000000;fontColor=#FF0000;gradientColor=none;" parent="1" vertex="1">
          <mxGeometry x="1565" y="2010" width="180" height="60" as="geometry" />
        </mxCell>
        <mxCell id="2PmmHMX1RF9NsNLcKvbn-24" style="edgeStyle=orthogonalEdgeStyle;rounded=0;orthogonalLoop=1;jettySize=auto;html=1;exitX=0;exitY=0.5;exitDx=0;exitDy=0;entryX=1;entryY=0.5;entryDx=0;entryDy=0;fontColor=#000000;dashed=1;dashPattern=1 1;" parent="1" source="2PmmHMX1RF9NsNLcKvbn-1" target="2PmmHMX1RF9NsNLcKvbn-22" edge="1">
          <mxGeometry relative="1" as="geometry" />
        </mxCell>
        <mxCell id="2PmmHMX1RF9NsNLcKvbn-1" value="&lt;font color=&quot;#000000&quot;&gt;consistencyService .&lt;/font&gt;&lt;font color=&quot;#ff0000&quot;&gt;listen&lt;/font&gt;&lt;font color=&quot;#000000&quot;&gt;(key, service);&lt;br&gt;添加 listener&lt;br&gt;&lt;/font&gt;" style="whiteSpace=wrap;html=1;fillColor=none;fontColor=#009900;rounded=0;gradientColor=none;" parent="1" vertex="1">
          <mxGeometry x="2097.5" y="1860" width="245" height="60" as="geometry" />
        </mxCell>
        <mxCell id="2PmmHMX1RF9NsNLcKvbn-19" value="" style="edgeStyle=orthogonalEdgeStyle;rounded=0;orthogonalLoop=1;jettySize=auto;html=1;fontColor=#000000;" parent="1" source="2PmmHMX1RF9NsNLcKvbn-4" target="2PmmHMX1RF9NsNLcKvbn-18" edge="1">
          <mxGeometry relative="1" as="geometry" />
        </mxCell>
        <mxCell id="2PmmHMX1RF9NsNLcKvbn-20" style="edgeStyle=orthogonalEdgeStyle;rounded=0;orthogonalLoop=1;jettySize=auto;html=1;exitX=0.5;exitY=1;exitDx=0;exitDy=0;entryX=0.5;entryY=0;entryDx=0;entryDy=0;dashed=1;fontColor=#000000;" parent="1" source="2PmmHMX1RF9NsNLcKvbn-4" target="2PmmHMX1RF9NsNLcKvbn-6" edge="1">
          <mxGeometry relative="1" as="geometry" />
        </mxCell>
        <mxCell id="2PmmHMX1RF9NsNLcKvbn-21" value="run();" style="edgeLabel;html=1;align=center;verticalAlign=middle;resizable=0;points=[];fontColor=#000000;" parent="2PmmHMX1RF9NsNLcKvbn-20" vertex="1" connectable="0">
          <mxGeometry x="-0.28" y="-2" relative="1" as="geometry">
            <mxPoint as="offset" />
          </mxGeometry>
        </mxCell>
        <mxCell id="2PmmHMX1RF9NsNLcKvbn-4" value="notifier&lt;font color=&quot;#000000&quot;&gt;.addTask(key, &lt;/font&gt;&lt;font color=&quot;#ff0000&quot;&gt;DataOperation.CHANGE&lt;/font&gt;&lt;font color=&quot;#000000&quot;&gt;);&lt;br&gt;添加一个 CHANGE 消息给线程&lt;br&gt;&lt;/font&gt;" style="whiteSpace=wrap;html=1;fillColor=#dae8fc;strokeColor=#6c8ebf;" parent="1" vertex="1">
          <mxGeometry x="1520" y="2120" width="270" height="60" as="geometry" />
        </mxCell>
        <mxCell id="2PmmHMX1RF9NsNLcKvbn-23" value="" style="edgeStyle=orthogonalEdgeStyle;rounded=0;orthogonalLoop=1;jettySize=auto;html=1;fontColor=#000000;" parent="1" source="2PmmHMX1RF9NsNLcKvbn-6" target="2PmmHMX1RF9NsNLcKvbn-22" edge="1">
          <mxGeometry relative="1" as="geometry" />
        </mxCell>
        <mxCell id="eIaxBUfPHbvmFYsHHjmo-115" value="&lt;span style=&quot;font-size: 12px ; background-color: rgb(248 , 249 , 250)&quot;&gt;handle(pair);&lt;/span&gt;" style="edgeLabel;html=1;align=center;verticalAlign=middle;resizable=0;points=[];fontColor=#FF0000;" parent="2PmmHMX1RF9NsNLcKvbn-23" vertex="1" connectable="0">
          <mxGeometry x="-0.35" y="1" relative="1" as="geometry">
            <mxPoint x="-1" y="4" as="offset" />
          </mxGeometry>
        </mxCell>
        <mxCell id="2PmmHMX1RF9NsNLcKvbn-6" value="&lt;font color=&quot;#000000&quot;&gt;Pair&amp;lt;String, DataOperation&amp;gt; pair = tasks.take();&lt;/font&gt;" style="whiteSpace=wrap;html=1;fillColor=#dae8fc;strokeColor=#6c8ebf;" parent="1" vertex="1">
          <mxGeometry x="1515" y="2220" width="280" height="60" as="geometry" />
        </mxCell>
        <mxCell id="2PmmHMX1RF9NsNLcKvbn-18" value="tasks.offer(Pair.with(datumKey, action));&lt;br&gt;&lt;font color=&quot;#000000&quot;&gt;BlockingQueue&amp;lt;Pair&amp;lt;String, DataOperation&amp;gt;&amp;gt;&lt;/font&gt;" style="whiteSpace=wrap;html=1;fillColor=#dae8fc;strokeColor=#6c8ebf;" parent="1" vertex="1">
          <mxGeometry x="1180" y="2120" width="295" height="60" as="geometry" />
        </mxCell>
        <mxCell id="2PmmHMX1RF9NsNLcKvbn-26" value="" style="edgeStyle=orthogonalEdgeStyle;rounded=0;orthogonalLoop=1;jettySize=auto;html=1;fontColor=#000000;" parent="1" source="2PmmHMX1RF9NsNLcKvbn-22" target="2PmmHMX1RF9NsNLcKvbn-25" edge="1">
          <mxGeometry relative="1" as="geometry" />
        </mxCell>
        <mxCell id="2PmmHMX1RF9NsNLcKvbn-27" value="action == DataOperation.CHANGE" style="edgeLabel;html=1;align=center;verticalAlign=middle;resizable=0;points=[];fontColor=#000000;" parent="2PmmHMX1RF9NsNLcKvbn-26" vertex="1" connectable="0">
          <mxGeometry x="-0.05" relative="1" as="geometry">
            <mxPoint as="offset" />
          </mxGeometry>
        </mxCell>
        <mxCell id="2PmmHMX1RF9NsNLcKvbn-22" value="获取所有的 listener" style="whiteSpace=wrap;html=1;fillColor=#dae8fc;strokeColor=#6c8ebf;" parent="1" vertex="1">
          <mxGeometry x="1595" y="2330" width="120" height="60" as="geometry" />
        </mxCell>
        <mxCell id="2PmmHMX1RF9NsNLcKvbn-30" value="" style="edgeStyle=orthogonalEdgeStyle;rounded=0;orthogonalLoop=1;jettySize=auto;html=1;fontColor=#3399FF;" parent="1" source="2PmmHMX1RF9NsNLcKvbn-25" target="2PmmHMX1RF9NsNLcKvbn-29" edge="1">
          <mxGeometry relative="1" as="geometry" />
        </mxCell>
        <mxCell id="2PmmHMX1RF9NsNLcKvbn-31" value="核心注册/更新逻辑" style="edgeLabel;html=1;align=center;verticalAlign=middle;resizable=0;points=[];fontColor=#FF0000;" parent="2PmmHMX1RF9NsNLcKvbn-30" vertex="1" connectable="0">
          <mxGeometry x="-0.12" y="1" relative="1" as="geometry">
            <mxPoint as="offset" />
          </mxGeometry>
        </mxCell>
        <mxCell id="2PmmHMX1RF9NsNLcKvbn-25" value="&lt;font color=&quot;#000000&quot;&gt;listener.onChange(datumKey, &lt;/font&gt;&lt;font color=&quot;#3399ff&quot;&gt;dataStore.get(datumKey).value&lt;/font&gt;&lt;font color=&quot;#000000&quot;&gt;);&lt;br&gt;其实就是：Service.onChange(key, instances)&lt;br&gt;&lt;/font&gt;" style="whiteSpace=wrap;html=1;fillColor=#dae8fc;strokeColor=#6c8ebf;" parent="1" vertex="1">
          <mxGeometry x="1470" y="2444" width="370" height="56" as="geometry" />
        </mxCell>
        <mxCell id="2PmmHMX1RF9NsNLcKvbn-33" value="" style="edgeStyle=orthogonalEdgeStyle;rounded=0;orthogonalLoop=1;jettySize=auto;html=1;fontColor=#FF0000;" parent="1" source="2PmmHMX1RF9NsNLcKvbn-29" target="2PmmHMX1RF9NsNLcKvbn-32" edge="1">
          <mxGeometry relative="1" as="geometry" />
        </mxCell>
        <mxCell id="2PmmHMX1RF9NsNLcKvbn-29" value="&lt;font color=&quot;#ff0000&quot;&gt;updateIPs&lt;/font&gt;&lt;font color=&quot;#000000&quot;&gt;(value.getInstanceList(), KeyBuilder.matchEphemeralInstanceListKey(key));&lt;/font&gt;" style="whiteSpace=wrap;html=1;fillColor=#dae8fc;strokeColor=#6c8ebf;" parent="1" vertex="1">
          <mxGeometry x="1410" y="2550" width="490" height="62" as="geometry" />
        </mxCell>
        <mxCell id="2PmmHMX1RF9NsNLcKvbn-35" value="" style="edgeStyle=orthogonalEdgeStyle;rounded=0;orthogonalLoop=1;jettySize=auto;html=1;fontColor=#000000;entryX=0.5;entryY=0;entryDx=0;entryDy=0;" parent="1" source="2PmmHMX1RF9NsNLcKvbn-32" target="2PmmHMX1RF9NsNLcKvbn-37" edge="1">
          <mxGeometry relative="1" as="geometry">
            <mxPoint x="1655" y="2760" as="targetPoint" />
          </mxGeometry>
        </mxCell>
        <mxCell id="2PmmHMX1RF9NsNLcKvbn-36" value="&lt;font color=&quot;#ff0000&quot;&gt;Cluster&lt;/font&gt;#updateIps" style="edgeLabel;html=1;align=center;verticalAlign=middle;resizable=0;points=[];fontColor=#000000;" parent="2PmmHMX1RF9NsNLcKvbn-35" vertex="1" connectable="0">
          <mxGeometry x="-0.0828" y="2" relative="1" as="geometry">
            <mxPoint as="offset" />
          </mxGeometry>
        </mxCell>
        <mxCell id="eIaxBUfPHbvmFYsHHjmo-117" value="" style="edgeStyle=orthogonalEdgeStyle;rounded=0;jumpStyle=none;jumpSize=1;orthogonalLoop=1;jettySize=auto;html=1;fontColor=#FF0000;" parent="1" source="2PmmHMX1RF9NsNLcKvbn-32" target="eIaxBUfPHbvmFYsHHjmo-116" edge="1">
          <mxGeometry relative="1" as="geometry" />
        </mxCell>
        <mxCell id="eIaxBUfPHbvmFYsHHjmo-118" value="发布事件" style="edgeLabel;html=1;align=center;verticalAlign=middle;resizable=0;points=[];fontColor=#FF0000;" parent="eIaxBUfPHbvmFYsHHjmo-117" vertex="1" connectable="0">
          <mxGeometry x="0.0893" y="3" relative="1" as="geometry">
            <mxPoint y="3" as="offset" />
          </mxGeometry>
        </mxCell>
        <mxCell id="2PmmHMX1RF9NsNLcKvbn-32" value="clusterMap.get(entry.getKey())&lt;font color=&quot;#000000&quot;&gt;.&lt;/font&gt;&lt;font color=&quot;#ff0000&quot;&gt;updateIps&lt;/font&gt;&lt;font color=&quot;#000000&quot;&gt;(entryIPs, ephemeral);&lt;br&gt;clusterMap 是注册表中 Service 的一部分&lt;/font&gt;&lt;font color=&quot;#000000&quot;&gt;&lt;br&gt;&lt;/font&gt;" style="whiteSpace=wrap;html=1;fillColor=#dae8fc;strokeColor=#6c8ebf;" parent="1" vertex="1">
          <mxGeometry x="1470" y="2650" width="370" height="57" as="geometry" />
        </mxCell>
        <mxCell id="2PmmHMX1RF9NsNLcKvbn-39" value="" style="edgeStyle=orthogonalEdgeStyle;rounded=0;orthogonalLoop=1;jettySize=auto;html=1;fontColor=#000000;" parent="1" source="2PmmHMX1RF9NsNLcKvbn-37" target="2PmmHMX1RF9NsNLcKvbn-38" edge="1">
          <mxGeometry relative="1" as="geometry" />
        </mxCell>
        <mxCell id="2PmmHMX1RF9NsNLcKvbn-41" value="" style="edgeStyle=orthogonalEdgeStyle;rounded=0;orthogonalLoop=1;jettySize=auto;html=1;fontColor=#000000;" parent="1" source="2PmmHMX1RF9NsNLcKvbn-37" target="2PmmHMX1RF9NsNLcKvbn-40" edge="1">
          <mxGeometry relative="1" as="geometry" />
        </mxCell>
        <mxCell id="2PmmHMX1RF9NsNLcKvbn-37" value="ephemeral?" style="rhombus;whiteSpace=wrap;html=1;labelBackgroundColor=none;fillColor=#dae8fc;strokeColor=#6c8ebf;" parent="1" vertex="1">
          <mxGeometry x="1570" y="2760" width="170" height="80" as="geometry" />
        </mxCell>
        <mxCell id="2PmmHMX1RF9NsNLcKvbn-43" value="" style="edgeStyle=orthogonalEdgeStyle;rounded=0;orthogonalLoop=1;jettySize=auto;html=1;fontColor=#FF0000;" parent="1" source="2PmmHMX1RF9NsNLcKvbn-38" target="2PmmHMX1RF9NsNLcKvbn-42" edge="1">
          <mxGeometry relative="1" as="geometry" />
        </mxCell>
        <mxCell id="2PmmHMX1RF9NsNLcKvbn-38" value="ephemeralInstances = toUpdateInstances;" style="whiteSpace=wrap;html=1;labelBackgroundColor=none;fillColor=#dae8fc;strokeColor=#6c8ebf;" parent="1" vertex="1">
          <mxGeometry x="1527.5" y="2880" width="255" height="60" as="geometry" />
        </mxCell>
        <mxCell id="2PmmHMX1RF9NsNLcKvbn-44" style="edgeStyle=orthogonalEdgeStyle;rounded=0;orthogonalLoop=1;jettySize=auto;html=1;exitX=0.5;exitY=1;exitDx=0;exitDy=0;entryX=1;entryY=0.5;entryDx=0;entryDy=0;fontColor=#FF0000;" parent="1" source="2PmmHMX1RF9NsNLcKvbn-40" target="2PmmHMX1RF9NsNLcKvbn-42" edge="1">
          <mxGeometry relative="1" as="geometry" />
        </mxCell>
        <mxCell id="2PmmHMX1RF9NsNLcKvbn-40" value="persistentInstances = toUpdateInstances;" style="whiteSpace=wrap;html=1;labelBackgroundColor=none;fillColor=#dae8fc;strokeColor=#6c8ebf;" parent="1" vertex="1">
          <mxGeometry x="1790" y="2770" width="255" height="60" as="geometry" />
        </mxCell>
        <mxCell id="2PmmHMX1RF9NsNLcKvbn-42" value="&lt;font color=&quot;#ff0000&quot;&gt;Cluster&lt;/font&gt;&lt;br&gt;注册表的一部分" style="whiteSpace=wrap;html=1;labelBackgroundColor=none;fillColor=#dae8fc;strokeColor=#6c8ebf;" parent="1" vertex="1">
          <mxGeometry x="1595" y="2980" width="120" height="60" as="geometry" />
        </mxCell>
        <mxCell id="2PmmHMX1RF9NsNLcKvbn-45" value="&lt;h1&gt;服务注册表：&lt;br&gt;&lt;pre style=&quot;color: rgb(169 , 183 , 198) ; font-family: &amp;quot;jetbrains mono&amp;quot; , monospace ; font-size: 9.8pt&quot;&gt;&lt;span style=&quot;color: rgb(98 , 151 , 85) ; font-style: italic&quot;&gt;结构：Map(namespace, Map(group::serviceName, Service)).&lt;/span&gt;&lt;/pre&gt;&lt;/h1&gt;&lt;pre style=&quot;color: rgb(169 , 183 , 198) ; font-family: &amp;quot;jetbrains mono&amp;quot; , monospace ; font-size: 9.8pt&quot;&gt;Map&lt;span style=&quot;color: rgb(152 , 118 , 170) ; font-style: italic&quot;&gt;&amp;lt;&lt;/span&gt;String&lt;span style=&quot;color: rgb(204 , 120 , 50)&quot;&gt;, &lt;/span&gt;Map&lt;span style=&quot;color: rgb(152 , 118 , 170) ; font-style: italic&quot;&gt;&amp;lt;&lt;/span&gt;String&lt;span style=&quot;color: rgb(204 , 120 , 50)&quot;&gt;, &lt;/span&gt;Service&lt;span style=&quot;color: rgb(152 , 118 , 170) ; font-style: italic&quot;&gt;&amp;gt;&amp;gt; &lt;/span&gt;&lt;span style=&quot;color: rgb(152 , 118 , 170)&quot;&gt;serviceMap &lt;/span&gt;= &lt;span style=&quot;color: rgb(204 , 120 , 50)&quot;&gt;new &lt;/span&gt;ConcurrentHashMap&lt;span style=&quot;color: rgb(152 , 118 , 170) ; font-style: italic&quot;&gt;&amp;lt;&amp;gt;()&lt;/span&gt;&lt;span style=&quot;color: rgb(204 , 120 , 50)&quot;&gt;;&lt;/span&gt;&lt;/pre&gt;&lt;pre style=&quot;font-family: &amp;quot;jetbrains mono&amp;quot;, monospace; font-size: 9.8pt;&quot;&gt;&lt;font color=&quot;#67ab9f&quot;&gt;&lt;span style=&quot;caret-color: rgb(204, 120, 50);&quot;&gt;Service = &lt;/span&gt;&lt;span style=&quot;font-family: &amp;quot;JetBrains Mono&amp;quot;, monospace; font-size: 9.8pt;&quot;&gt;Map&lt;/span&gt;&lt;span style=&quot;font-family: &amp;quot;JetBrains Mono&amp;quot;, monospace; font-size: 9.8pt;&quot;&gt;&amp;lt;&lt;/span&gt;&lt;span style=&quot;font-family: &amp;quot;JetBrains Mono&amp;quot;, monospace; font-size: 9.8pt;&quot;&gt;String&lt;/span&gt;&lt;span style=&quot;font-family: &amp;quot;JetBrains Mono&amp;quot;, monospace; font-size: 9.8pt;&quot;&gt;, &lt;/span&gt;&lt;span style=&quot;font-family: &amp;quot;JetBrains Mono&amp;quot;, monospace; font-size: 9.8pt;&quot;&gt;Cluster&lt;/span&gt;&lt;span style=&quot;font-family: &amp;quot;JetBrains Mono&amp;quot;, monospace; font-size: 9.8pt;&quot;&gt;&amp;gt; &lt;/span&gt;&lt;span style=&quot;font-family: &amp;quot;JetBrains Mono&amp;quot;, monospace; font-size: 9.8pt;&quot;&gt;clusterMap &lt;/span&gt;&lt;span style=&quot;font-family: &amp;quot;JetBrains Mono&amp;quot;, monospace; font-size: 9.8pt;&quot;&gt;= &lt;/span&gt;&lt;span style=&quot;font-family: &amp;quot;JetBrains Mono&amp;quot;, monospace; font-size: 9.8pt;&quot;&gt;new &lt;/span&gt;&lt;span style=&quot;font-family: &amp;quot;JetBrains Mono&amp;quot;, monospace; font-size: 9.8pt;&quot;&gt;HashMap&lt;/span&gt;&lt;span style=&quot;font-family: &amp;quot;JetBrains Mono&amp;quot;, monospace; font-size: 9.8pt;&quot;&gt;&amp;lt;&amp;gt;()&lt;/span&gt;&lt;span style=&quot;font-family: &amp;quot;JetBrains Mono&amp;quot;, monospace; font-size: 9.8pt;&quot;&gt;;&lt;/span&gt;&lt;/font&gt;&lt;/pre&gt;Cluster = &lt;font color=&quot;#cda2be&quot;&gt;Set&amp;lt;Instance&amp;gt; persistentInstances = new HashSet&amp;lt;&amp;gt;();&lt;/font&gt; &lt;font color=&quot;#ea6b66&quot;&gt;Set&amp;lt;Instance&amp;gt; ephemeralInstances = new HashSet&amp;lt;&amp;gt;();&lt;/font&gt;" style="text;html=1;strokeColor=none;fillColor=none;spacing=5;spacingTop=-20;whiteSpace=wrap;overflow=hidden;rounded=0;labelBackgroundColor=none;fontColor=#000000;" parent="1" vertex="1">
          <mxGeometry x="60" y="25" width="690" height="160" as="geometry" />
        </mxCell>
        <mxCell id="2PmmHMX1RF9NsNLcKvbn-103" style="edgeStyle=orthogonalEdgeStyle;rounded=0;orthogonalLoop=1;jettySize=auto;html=1;entryX=0;entryY=0.5;entryDx=0;entryDy=0;fontColor=#FF0000;" parent="1" source="2PmmHMX1RF9NsNLcKvbn-102" target="2PmmHMX1RF9NsNLcKvbn-32" edge="1">
          <mxGeometry relative="1" as="geometry" />
        </mxCell>
        <mxCell id="2PmmHMX1RF9NsNLcKvbn-102" value="&lt;font color=&quot;#000000&quot;&gt;使用了&amp;nbsp;&lt;/font&gt;&lt;font color=&quot;#ff0000&quot;&gt;Copy On Write&lt;/font&gt;&lt;font color=&quot;#000000&quot;&gt;&amp;nbsp;思想&lt;br&gt;拿到旧的实例列表复制一份，与新的实例进行比较，然后替换旧的实例列表&lt;br&gt;&lt;/font&gt;" style="shape=note;whiteSpace=wrap;html=1;backgroundOutline=1;darkOpacity=0.05;labelBackgroundColor=none;fillColor=#fff2cc;strokeColor=#d6b656;" parent="1" vertex="1">
          <mxGeometry x="1200" y="2633" width="210" height="91" as="geometry" />
        </mxCell>
        <mxCell id="eIaxBUfPHbvmFYsHHjmo-2" style="edgeStyle=orthogonalEdgeStyle;rounded=0;orthogonalLoop=1;jettySize=auto;html=1;exitX=1;exitY=0.5;exitDx=0;exitDy=0;entryX=0;entryY=0.5;entryDx=0;entryDy=0;fontColor=#FF0000;" parent="1" source="eIaxBUfPHbvmFYsHHjmo-1" target="zgKmjXe5RocedFzESMuj-1" edge="1">
          <mxGeometry relative="1" as="geometry" />
        </mxCell>
        <mxCell id="eIaxBUfPHbvmFYsHHjmo-3" value="服务注册" style="edgeLabel;html=1;align=center;verticalAlign=middle;resizable=0;points=[];fontColor=#FF0000;" parent="eIaxBUfPHbvmFYsHHjmo-2" vertex="1" connectable="0">
          <mxGeometry x="-0.0791" y="1" relative="1" as="geometry">
            <mxPoint as="offset" />
          </mxGeometry>
        </mxCell>
        <mxCell id="eIaxBUfPHbvmFYsHHjmo-5" value="" style="edgeStyle=orthogonalEdgeStyle;rounded=0;orthogonalLoop=1;jettySize=auto;html=1;fontColor=#FF0000;" parent="1" source="eIaxBUfPHbvmFYsHHjmo-1" target="eIaxBUfPHbvmFYsHHjmo-4" edge="1">
          <mxGeometry relative="1" as="geometry" />
        </mxCell>
        <mxCell id="eIaxBUfPHbvmFYsHHjmo-6" value="服务发现" style="edgeLabel;html=1;align=center;verticalAlign=middle;resizable=0;points=[];fontColor=#FF0000;" parent="eIaxBUfPHbvmFYsHHjmo-5" vertex="1" connectable="0">
          <mxGeometry x="-0.0404" y="-3" relative="1" as="geometry">
            <mxPoint as="offset" />
          </mxGeometry>
        </mxCell>
        <mxCell id="eIaxBUfPHbvmFYsHHjmo-1" value="Client" style="ellipse;whiteSpace=wrap;html=1;aspect=fixed;labelBackgroundColor=none;fillColor=#e1d5e7;strokeColor=#9673a6;" parent="1" vertex="1">
          <mxGeometry x="160" y="850" width="80" height="80" as="geometry" />
        </mxCell>
        <mxCell id="eIaxBUfPHbvmFYsHHjmo-8" value="" style="edgeStyle=orthogonalEdgeStyle;rounded=0;orthogonalLoop=1;jettySize=auto;html=1;fontColor=#FF0000;" parent="1" source="eIaxBUfPHbvmFYsHHjmo-4" target="eIaxBUfPHbvmFYsHHjmo-7" edge="1">
          <mxGeometry relative="1" as="geometry" />
        </mxCell>
        <mxCell id="eIaxBUfPHbvmFYsHHjmo-4" value="NacosNamingService" style="whiteSpace=wrap;html=1;labelBackgroundColor=none;fillColor=#dae8fc;strokeColor=#6c8ebf;" parent="1" vertex="1">
          <mxGeometry x="125" y="1020" width="150" height="60" as="geometry" />
        </mxCell>
        <mxCell id="eIaxBUfPHbvmFYsHHjmo-11" value="" style="edgeStyle=orthogonalEdgeStyle;rounded=0;orthogonalLoop=1;jettySize=auto;html=1;fontColor=#FF0000;" parent="1" source="eIaxBUfPHbvmFYsHHjmo-7" target="eIaxBUfPHbvmFYsHHjmo-10" edge="1">
          <mxGeometry relative="1" as="geometry" />
        </mxCell>
        <mxCell id="eIaxBUfPHbvmFYsHHjmo-7" value="&lt;span style=&quot;font-size: 11px&quot;&gt;NacosNamingService#&lt;font color=&quot;#ff0000&quot;&gt;getAllInstances&lt;/font&gt;&lt;/span&gt;" style="whiteSpace=wrap;html=1;labelBackgroundColor=none;" parent="1" vertex="1">
          <mxGeometry x="85" y="1115" width="230" height="60" as="geometry" />
        </mxCell>
        <mxCell id="eIaxBUfPHbvmFYsHHjmo-13" value="" style="edgeStyle=orthogonalEdgeStyle;rounded=0;orthogonalLoop=1;jettySize=auto;html=1;fontColor=#FF0000;" parent="1" source="eIaxBUfPHbvmFYsHHjmo-10" target="eIaxBUfPHbvmFYsHHjmo-12" edge="1">
          <mxGeometry relative="1" as="geometry" />
        </mxCell>
        <mxCell id="eIaxBUfPHbvmFYsHHjmo-14" value="ServiceInfo serviceObj = getServiceInfo0(serviceName, clusters);&lt;br&gt;&lt;font color=&quot;#000000&quot;&gt;第一次获取的时候，serviceObj 为 null&lt;/font&gt;" style="edgeLabel;html=1;align=center;verticalAlign=middle;resizable=0;points=[];fontColor=#FF0000;" parent="eIaxBUfPHbvmFYsHHjmo-13" vertex="1" connectable="0">
          <mxGeometry x="-0.2614" relative="1" as="geometry">
            <mxPoint as="offset" />
          </mxGeometry>
        </mxCell>
        <mxCell id="eIaxBUfPHbvmFYsHHjmo-10" value="hostReactor.&lt;font color=&quot;#ff0000&quot;&gt;getServiceInfo&lt;/font&gt;" style="whiteSpace=wrap;html=1;labelBackgroundColor=none;fillColor=#d5e8d4;strokeColor=#82b366;" parent="1" vertex="1">
          <mxGeometry x="105" y="1210" width="190" height="60" as="geometry" />
        </mxCell>
        <mxCell id="eIaxBUfPHbvmFYsHHjmo-17" value="" style="edgeStyle=orthogonalEdgeStyle;rounded=0;orthogonalLoop=1;jettySize=auto;html=1;fontColor=#000000;dashed=1;entryX=0.5;entryY=0;entryDx=0;entryDy=0;" parent="1" source="eIaxBUfPHbvmFYsHHjmo-12" target="eIaxBUfPHbvmFYsHHjmo-32" edge="1">
          <mxGeometry relative="1" as="geometry">
            <mxPoint x="465" y="1470" as="targetPoint" />
          </mxGeometry>
        </mxCell>
        <mxCell id="eIaxBUfPHbvmFYsHHjmo-24" value="" style="edgeStyle=orthogonalEdgeStyle;rounded=0;orthogonalLoop=1;jettySize=auto;html=1;fontColor=#FF0000;" parent="1" source="eIaxBUfPHbvmFYsHHjmo-12" target="eIaxBUfPHbvmFYsHHjmo-23" edge="1">
          <mxGeometry relative="1" as="geometry" />
        </mxCell>
        <mxCell id="eIaxBUfPHbvmFYsHHjmo-25" value="开启定时任务" style="edgeLabel;html=1;align=center;verticalAlign=middle;resizable=0;points=[];fontColor=#FF0000;" parent="eIaxBUfPHbvmFYsHHjmo-24" vertex="1" connectable="0">
          <mxGeometry x="-0.1932" y="1" relative="1" as="geometry">
            <mxPoint as="offset" />
          </mxGeometry>
        </mxCell>
        <mxCell id="eIaxBUfPHbvmFYsHHjmo-12" value="&lt;font color=&quot;#ff0000&quot;&gt;updateServiceNow&lt;/font&gt;(serviceName, clusters);&lt;br&gt;立即更新本地缓存" style="whiteSpace=wrap;html=1;labelBackgroundColor=none;" parent="1" vertex="1">
          <mxGeometry x="70" y="1350" width="260" height="60" as="geometry" />
        </mxCell>
        <mxCell id="eIaxBUfPHbvmFYsHHjmo-21" value="" style="edgeStyle=orthogonalEdgeStyle;rounded=0;orthogonalLoop=1;jettySize=auto;html=1;fontColor=#FF0000;" parent="1" source="eIaxBUfPHbvmFYsHHjmo-19" target="eIaxBUfPHbvmFYsHHjmo-20" edge="1">
          <mxGeometry relative="1" as="geometry" />
        </mxCell>
        <mxCell id="eIaxBUfPHbvmFYsHHjmo-22" value="processServiceJson(result);&lt;br&gt;加入本地缓存" style="edgeLabel;html=1;align=center;verticalAlign=middle;resizable=0;points=[];fontColor=#FF0000;" parent="eIaxBUfPHbvmFYsHHjmo-21" vertex="1" connectable="0">
          <mxGeometry x="-0.0114" y="-1" relative="1" as="geometry">
            <mxPoint as="offset" />
          </mxGeometry>
        </mxCell>
        <mxCell id="eIaxBUfPHbvmFYsHHjmo-43" style="edgeStyle=orthogonalEdgeStyle;rounded=0;orthogonalLoop=1;jettySize=auto;html=1;exitX=1;exitY=0.5;exitDx=0;exitDy=0;dashed=1;fontColor=#000000;entryX=0;entryY=0;entryDx=0;entryDy=0;" parent="1" source="eIaxBUfPHbvmFYsHHjmo-19" target="eIaxBUfPHbvmFYsHHjmo-45" edge="1">
          <mxGeometry relative="1" as="geometry">
            <mxPoint x="660" y="2010" as="targetPoint" />
            <Array as="points">
              <mxPoint x="660" y="1650" />
              <mxPoint x="660" y="1860" />
              <mxPoint x="882" y="1860" />
            </Array>
          </mxGeometry>
        </mxCell>
        <mxCell id="eIaxBUfPHbvmFYsHHjmo-19" value="reqApi&lt;br&gt;&lt;font color=&quot;#ff0000&quot;&gt;GET /nacos/v1/ns/instance/list&lt;br&gt;&lt;/font&gt;&lt;font color=&quot;#000000&quot;&gt;调用服务端获取实例列表&amp;nbsp;&lt;/font&gt;" style="rounded=0;whiteSpace=wrap;html=1;labelBackgroundColor=none;fillColor=#ffe6cc;strokeColor=#d79b00;" parent="1" vertex="1">
          <mxGeometry x="390" y="1620" width="190" height="60" as="geometry" />
        </mxCell>
        <mxCell id="eIaxBUfPHbvmFYsHHjmo-20" value="&lt;font color=&quot;#ff0000&quot;&gt;serviceInfoMap&lt;/font&gt;.put(serviceInfo.getKey(), serviceInfo);&lt;br&gt;本地缓存" style="whiteSpace=wrap;html=1;rounded=0;labelBackgroundColor=none;fillColor=#e1d5e7;strokeColor=#9673a6;" parent="1" vertex="1">
          <mxGeometry x="330" y="1760" width="310" height="50" as="geometry" />
        </mxCell>
        <mxCell id="eIaxBUfPHbvmFYsHHjmo-27" value="" style="edgeStyle=orthogonalEdgeStyle;rounded=0;orthogonalLoop=1;jettySize=auto;html=1;fontColor=#FF0000;" parent="1" source="eIaxBUfPHbvmFYsHHjmo-23" target="eIaxBUfPHbvmFYsHHjmo-26" edge="1">
          <mxGeometry relative="1" as="geometry" />
        </mxCell>
        <mxCell id="eIaxBUfPHbvmFYsHHjmo-23" value="&lt;font color=&quot;#ff0000&quot;&gt;scheduleUpdateIfAbsent&lt;/font&gt;(serviceName, clusters);" style="whiteSpace=wrap;html=1;labelBackgroundColor=none;" parent="1" vertex="1">
          <mxGeometry x="60" y="1490" width="280" height="60" as="geometry" />
        </mxCell>
        <mxCell id="eIaxBUfPHbvmFYsHHjmo-29" value="" style="edgeStyle=orthogonalEdgeStyle;rounded=0;orthogonalLoop=1;jettySize=auto;html=1;fontColor=#FF0000;" parent="1" source="eIaxBUfPHbvmFYsHHjmo-26" target="eIaxBUfPHbvmFYsHHjmo-28" edge="1">
          <mxGeometry relative="1" as="geometry" />
        </mxCell>
        <mxCell id="eIaxBUfPHbvmFYsHHjmo-26" value="addTask(updateTask)" style="whiteSpace=wrap;html=1;labelBackgroundColor=none;" parent="1" vertex="1">
          <mxGeometry x="130" y="1595" width="140" height="65" as="geometry" />
        </mxCell>
        <mxCell id="eIaxBUfPHbvmFYsHHjmo-36" style="edgeStyle=orthogonalEdgeStyle;rounded=0;orthogonalLoop=1;jettySize=auto;html=1;exitX=1;exitY=0.5;exitDx=0;exitDy=0;fontColor=#FF0000;entryX=0;entryY=0.5;entryDx=0;entryDy=0;dashed=1;" parent="1" source="eIaxBUfPHbvmFYsHHjmo-28" target="eIaxBUfPHbvmFYsHHjmo-32" edge="1">
          <mxGeometry relative="1" as="geometry">
            <mxPoint x="410" y="1570" as="targetPoint" />
            <mxPoint x="305" y="1733.8849999999998" as="sourcePoint" />
            <Array as="points">
              <mxPoint x="370" y="1734" />
              <mxPoint x="370" y="1510" />
            </Array>
          </mxGeometry>
        </mxCell>
        <mxCell id="eIaxBUfPHbvmFYsHHjmo-38" value="" style="edgeStyle=orthogonalEdgeStyle;rounded=0;orthogonalLoop=1;jettySize=auto;html=1;fontColor=#FF0000;" parent="1" source="eIaxBUfPHbvmFYsHHjmo-28" target="eIaxBUfPHbvmFYsHHjmo-37" edge="1">
          <mxGeometry relative="1" as="geometry" />
        </mxCell>
        <mxCell id="eIaxBUfPHbvmFYsHHjmo-39" value="每 60 秒拉取一次" style="edgeLabel;html=1;align=center;verticalAlign=middle;resizable=0;points=[];fontColor=#FF0000;" parent="eIaxBUfPHbvmFYsHHjmo-38" vertex="1" connectable="0">
          <mxGeometry x="-0.2708" y="-2" relative="1" as="geometry">
            <mxPoint as="offset" />
          </mxGeometry>
        </mxCell>
        <mxCell id="eIaxBUfPHbvmFYsHHjmo-28" value="HostReactor.&lt;font color=&quot;#ff0000&quot;&gt;UpdateTask&lt;/font&gt;#run" style="whiteSpace=wrap;html=1;labelBackgroundColor=none;" parent="1" vertex="1">
          <mxGeometry x="115" y="1700" width="170" height="67.77" as="geometry" />
        </mxCell>
        <mxCell id="eIaxBUfPHbvmFYsHHjmo-34" style="edgeStyle=orthogonalEdgeStyle;rounded=0;orthogonalLoop=1;jettySize=auto;html=1;exitX=0.5;exitY=1;exitDx=0;exitDy=0;entryX=0.5;entryY=0;entryDx=0;entryDy=0;fontColor=#FF0000;" parent="1" source="eIaxBUfPHbvmFYsHHjmo-32" target="eIaxBUfPHbvmFYsHHjmo-19" edge="1">
          <mxGeometry relative="1" as="geometry" />
        </mxCell>
        <mxCell id="eIaxBUfPHbvmFYsHHjmo-35" value="&lt;span style=&quot;color: rgb(0 , 0 , 0)&quot;&gt;serverProxy.queryList&lt;/span&gt;&lt;br style=&quot;color: rgb(0 , 0 , 0)&quot;&gt;&lt;span style=&quot;color: rgb(0 , 0 , 0)&quot;&gt;查询服务列表&lt;/span&gt;" style="edgeLabel;html=1;align=center;verticalAlign=middle;resizable=0;points=[];fontColor=#FF0000;" parent="eIaxBUfPHbvmFYsHHjmo-34" vertex="1" connectable="0">
          <mxGeometry x="-0.1932" y="2" relative="1" as="geometry">
            <mxPoint as="offset" />
          </mxGeometry>
        </mxCell>
        <mxCell id="eIaxBUfPHbvmFYsHHjmo-32" value="updateService" style="rounded=0;whiteSpace=wrap;html=1;labelBackgroundColor=none;fillColor=#d5e8d4;strokeColor=#82b366;" parent="1" vertex="1">
          <mxGeometry x="425" y="1480" width="120" height="60" as="geometry" />
        </mxCell>
        <mxCell id="eIaxBUfPHbvmFYsHHjmo-40" style="edgeStyle=orthogonalEdgeStyle;rounded=0;orthogonalLoop=1;jettySize=auto;html=1;exitX=0;exitY=0.5;exitDx=0;exitDy=0;entryX=0;entryY=0.5;entryDx=0;entryDy=0;fontColor=#FF0000;" parent="1" source="eIaxBUfPHbvmFYsHHjmo-37" target="eIaxBUfPHbvmFYsHHjmo-28" edge="1">
          <mxGeometry relative="1" as="geometry">
            <Array as="points">
              <mxPoint x="-30" y="1850" />
              <mxPoint x="-30" y="1734" />
            </Array>
          </mxGeometry>
        </mxCell>
        <mxCell id="eIaxBUfPHbvmFYsHHjmo-37" value="&lt;font color=&quot;#ff0000&quot;&gt;executor.schedule&lt;/font&gt;(this, 60 * 1000, TimeUnit.MILLISECONDS);" style="whiteSpace=wrap;html=1;labelBackgroundColor=none;" parent="1" vertex="1">
          <mxGeometry x="25" y="1825" width="350" height="50" as="geometry" />
        </mxCell>
        <mxCell id="eIaxBUfPHbvmFYsHHjmo-42" style="edgeStyle=orthogonalEdgeStyle;rounded=0;orthogonalLoop=1;jettySize=auto;html=1;exitX=0;exitY=0;exitDx=90;exitDy=65;exitPerimeter=0;entryX=0;entryY=0.5;entryDx=0;entryDy=0;fontColor=#000000;dashed=1;" parent="1" source="eIaxBUfPHbvmFYsHHjmo-41" target="eIaxBUfPHbvmFYsHHjmo-10" edge="1">
          <mxGeometry relative="1" as="geometry" />
        </mxCell>
        <mxCell id="eIaxBUfPHbvmFYsHHjmo-41" value="Ribbon 会调用此处实现整合" style="shape=note;whiteSpace=wrap;html=1;backgroundOutline=1;darkOpacity=0.05;labelBackgroundColor=none;fillColor=#fff2cc;strokeColor=#d6b656;" parent="1" vertex="1">
          <mxGeometry x="-80" y="1175" width="90" height="100" as="geometry" />
        </mxCell>
        <mxCell id="eIaxBUfPHbvmFYsHHjmo-48" value="" style="edgeStyle=orthogonalEdgeStyle;rounded=0;orthogonalLoop=1;jettySize=auto;html=1;fontColor=#000000;" parent="1" source="eIaxBUfPHbvmFYsHHjmo-44" target="eIaxBUfPHbvmFYsHHjmo-47" edge="1">
          <mxGeometry relative="1" as="geometry" />
        </mxCell>
        <mxCell id="eIaxBUfPHbvmFYsHHjmo-44" value="&lt;font color=&quot;#ff0000&quot;&gt;InstanceController#list&lt;br&gt;&lt;/font&gt;获取实例列表" style="rounded=0;whiteSpace=wrap;html=1;labelBackgroundColor=none;fillColor=#dae8fc;strokeColor=#6c8ebf;" parent="1" vertex="1">
          <mxGeometry x="580" y="1930" width="160" height="60" as="geometry" />
        </mxCell>
        <mxCell id="eIaxBUfPHbvmFYsHHjmo-61" style="edgeStyle=orthogonalEdgeStyle;rounded=0;orthogonalLoop=1;jettySize=auto;html=1;exitX=0;exitY=0.5;exitDx=0;exitDy=0;entryX=1;entryY=0.5;entryDx=0;entryDy=0;fontColor=#FF0000;" parent="1" source="eIaxBUfPHbvmFYsHHjmo-45" target="eIaxBUfPHbvmFYsHHjmo-44" edge="1">
          <mxGeometry relative="1" as="geometry" />
        </mxCell>
        <mxCell id="eIaxBUfPHbvmFYsHHjmo-89" value="" style="edgeStyle=orthogonalEdgeStyle;rounded=0;jumpStyle=none;jumpSize=1;orthogonalLoop=1;jettySize=auto;html=1;fontColor=#FF0000;" parent="1" source="eIaxBUfPHbvmFYsHHjmo-45" target="eIaxBUfPHbvmFYsHHjmo-88" edge="1">
          <mxGeometry relative="1" as="geometry" />
        </mxCell>
        <mxCell id="eIaxBUfPHbvmFYsHHjmo-45" value="Server" style="ellipse;whiteSpace=wrap;html=1;aspect=fixed;labelBackgroundColor=none;fillColor=#e1d5e7;strokeColor=#9673a6;" parent="1" vertex="1">
          <mxGeometry x="870" y="1920" width="80" height="80" as="geometry" />
        </mxCell>
        <mxCell id="eIaxBUfPHbvmFYsHHjmo-50" value="" style="edgeStyle=orthogonalEdgeStyle;rounded=0;orthogonalLoop=1;jettySize=auto;html=1;fontColor=#000000;" parent="1" source="eIaxBUfPHbvmFYsHHjmo-47" target="eIaxBUfPHbvmFYsHHjmo-49" edge="1">
          <mxGeometry relative="1" as="geometry" />
        </mxCell>
        <mxCell id="eIaxBUfPHbvmFYsHHjmo-47" value="doSrvIpxt" style="whiteSpace=wrap;html=1;rounded=0;labelBackgroundColor=none;" parent="1" vertex="1">
          <mxGeometry x="600" y="2030" width="120" height="50" as="geometry" />
        </mxCell>
        <mxCell id="eIaxBUfPHbvmFYsHHjmo-53" value="" style="edgeStyle=orthogonalEdgeStyle;rounded=0;orthogonalLoop=1;jettySize=auto;html=1;fontColor=#FF0000;" parent="1" source="eIaxBUfPHbvmFYsHHjmo-49" target="eIaxBUfPHbvmFYsHHjmo-52" edge="1">
          <mxGeometry relative="1" as="geometry" />
        </mxCell>
        <mxCell id="eIaxBUfPHbvmFYsHHjmo-49" value="service.srvIPs" style="whiteSpace=wrap;html=1;rounded=0;labelBackgroundColor=none;" parent="1" vertex="1">
          <mxGeometry x="600" y="2120" width="120" height="50" as="geometry" />
        </mxCell>
        <mxCell id="eIaxBUfPHbvmFYsHHjmo-55" value="" style="edgeStyle=orthogonalEdgeStyle;rounded=0;orthogonalLoop=1;jettySize=auto;html=1;fontColor=#FF0000;" parent="1" source="eIaxBUfPHbvmFYsHHjmo-52" target="eIaxBUfPHbvmFYsHHjmo-54" edge="1">
          <mxGeometry relative="1" as="geometry" />
        </mxCell>
        <mxCell id="eIaxBUfPHbvmFYsHHjmo-52" value="clusterObj.allIPs()" style="whiteSpace=wrap;html=1;rounded=0;labelBackgroundColor=none;" parent="1" vertex="1">
          <mxGeometry x="600" y="2200" width="120" height="50" as="geometry" />
        </mxCell>
        <mxCell id="eIaxBUfPHbvmFYsHHjmo-94" style="edgeStyle=orthogonalEdgeStyle;rounded=0;jumpStyle=none;jumpSize=1;orthogonalLoop=1;jettySize=auto;html=1;exitX=0.5;exitY=0;exitDx=0;exitDy=0;entryX=0.5;entryY=1;entryDx=0;entryDy=0;fontColor=#FF0000;dashed=1;" parent="1" source="eIaxBUfPHbvmFYsHHjmo-54" target="eIaxBUfPHbvmFYsHHjmo-20" edge="1">
          <mxGeometry relative="1" as="geometry" />
        </mxCell>
        <mxCell id="eIaxBUfPHbvmFYsHHjmo-95" value="返回服务端注册的所有实例" style="edgeLabel;html=1;align=center;verticalAlign=middle;resizable=0;points=[];fontColor=#FF0000;" parent="eIaxBUfPHbvmFYsHHjmo-94" vertex="1" connectable="0">
          <mxGeometry x="0.0704" y="-3" relative="1" as="geometry">
            <mxPoint x="-18" y="-4" as="offset" />
          </mxGeometry>
        </mxCell>
        <mxCell id="eIaxBUfPHbvmFYsHHjmo-54" value="allInstances.addAll(&lt;font color=&quot;#ff0000&quot;&gt;persistentInstances&lt;/font&gt;);&lt;br&gt;allInstances.addAll(&lt;font color=&quot;#ff0000&quot;&gt;ephemeralInstances&lt;/font&gt;);" style="whiteSpace=wrap;html=1;rounded=0;labelBackgroundColor=none;" parent="1" vertex="1">
          <mxGeometry x="100" y="2192.5" width="250" height="65" as="geometry" />
        </mxCell>
        <mxCell id="eIaxBUfPHbvmFYsHHjmo-58" style="edgeStyle=orthogonalEdgeStyle;rounded=0;orthogonalLoop=1;jettySize=auto;html=1;exitX=0.5;exitY=1;exitDx=0;exitDy=0;entryX=0.5;entryY=0;entryDx=0;entryDy=0;fontColor=#000000;" parent="1" source="eIaxBUfPHbvmFYsHHjmo-57" target="zgKmjXe5RocedFzESMuj-64" edge="1">
          <mxGeometry relative="1" as="geometry">
            <mxPoint x="2675.6000000000004" y="1840" as="targetPoint" />
          </mxGeometry>
        </mxCell>
        <mxCell id="eIaxBUfPHbvmFYsHHjmo-59" value="&lt;span style=&quot;font-size: 12px ; background-color: rgb(248 , 249 , 250)&quot;&gt;GlobalExecutor.&lt;font color=&quot;#ff0000&quot;&gt;scheduleNamingHealth&lt;/font&gt;(task, 5000, 5000, TimeUnit.MILLISECONDS)&lt;/span&gt;" style="edgeLabel;html=1;align=center;verticalAlign=middle;resizable=0;points=[];fontColor=#000000;" parent="eIaxBUfPHbvmFYsHHjmo-58" vertex="1" connectable="0">
          <mxGeometry x="-0.0841" y="-1" relative="1" as="geometry">
            <mxPoint as="offset" />
          </mxGeometry>
        </mxCell>
        <mxCell id="eIaxBUfPHbvmFYsHHjmo-57" value="&lt;font color=&quot;#000000&quot;&gt;HealthCheckReactor.scheduleCheck(clientBeatCheckTask);&lt;/font&gt;" style="rounded=0;whiteSpace=wrap;html=1;labelBackgroundColor=none;fillColor=#dae8fc;strokeColor=#6c8ebf;" parent="1" vertex="1">
          <mxGeometry x="2503.6" y="1720" width="344" height="60" as="geometry" />
        </mxCell>
        <mxCell id="eIaxBUfPHbvmFYsHHjmo-67" style="edgeStyle=orthogonalEdgeStyle;rounded=0;orthogonalLoop=1;jettySize=auto;html=1;exitX=0.5;exitY=1;exitDx=0;exitDy=0;fontColor=#FF0000;" parent="1" source="eIaxBUfPHbvmFYsHHjmo-63" target="zgKmjXe5RocedFzESMuj-29" edge="1">
          <mxGeometry relative="1" as="geometry" />
        </mxCell>
        <mxCell id="eIaxBUfPHbvmFYsHHjmo-63" value="serverProxy.&lt;font color=&quot;#ff0000&quot;&gt;registerService&lt;/font&gt;" style="whiteSpace=wrap;html=1;rounded=0;" parent="1" vertex="1">
          <mxGeometry x="712.5" y="1640" width="165" height="50" as="geometry" />
        </mxCell>
        <mxCell id="eIaxBUfPHbvmFYsHHjmo-73" style="edgeStyle=orthogonalEdgeStyle;rounded=0;jumpStyle=none;jumpSize=1;orthogonalLoop=1;jettySize=auto;html=1;exitX=0.5;exitY=1;exitDx=0;exitDy=0;fontColor=#FF0000;" parent="1" source="eIaxBUfPHbvmFYsHHjmo-69" target="eIaxBUfPHbvmFYsHHjmo-72" edge="1">
          <mxGeometry relative="1" as="geometry" />
        </mxCell>
        <mxCell id="eIaxBUfPHbvmFYsHHjmo-69" value="beatInfo&lt;font color=&quot;#000000&quot;&gt; = beatReactor.&lt;/font&gt;buildBeatInfo&lt;br&gt;&lt;font color=&quot;#000000&quot;&gt;设置心跳间隔为 5 s&lt;/font&gt;" style="rounded=0;whiteSpace=wrap;html=1;labelBackgroundColor=none;fontColor=#FF0000;" parent="1" vertex="1">
          <mxGeometry x="1067" y="1280" width="233" height="60" as="geometry" />
        </mxCell>
        <mxCell id="eIaxBUfPHbvmFYsHHjmo-75" value="" style="edgeStyle=orthogonalEdgeStyle;rounded=0;jumpStyle=none;jumpSize=1;orthogonalLoop=1;jettySize=auto;html=1;fontColor=#FF0000;" parent="1" source="eIaxBUfPHbvmFYsHHjmo-72" target="eIaxBUfPHbvmFYsHHjmo-74" edge="1">
          <mxGeometry relative="1" as="geometry" />
        </mxCell>
        <mxCell id="eIaxBUfPHbvmFYsHHjmo-76" value="&lt;font color=&quot;#000000&quot;&gt;schedule(new BeatTask(beatInfo), beatInfo.getPeriod(), TimeUnit.MILLISECONDS);&lt;/font&gt;" style="edgeLabel;html=1;align=center;verticalAlign=middle;resizable=0;points=[];fontColor=#FF0000;" parent="eIaxBUfPHbvmFYsHHjmo-75" vertex="1" connectable="0">
          <mxGeometry x="-0.0512" y="1" relative="1" as="geometry">
            <mxPoint x="-1" y="-8" as="offset" />
          </mxGeometry>
        </mxCell>
        <mxCell id="eIaxBUfPHbvmFYsHHjmo-72" value="beatReactor.addBeatInfo" style="rounded=0;whiteSpace=wrap;html=1;labelBackgroundColor=none;fontColor=#FF0000;" parent="1" vertex="1">
          <mxGeometry x="1103.5" y="1390" width="160" height="60" as="geometry" />
        </mxCell>
        <mxCell id="eIaxBUfPHbvmFYsHHjmo-78" value="" style="edgeStyle=orthogonalEdgeStyle;rounded=0;jumpStyle=none;jumpSize=1;orthogonalLoop=1;jettySize=auto;html=1;fontColor=#FF0000;" parent="1" source="eIaxBUfPHbvmFYsHHjmo-74" target="eIaxBUfPHbvmFYsHHjmo-77" edge="1">
          <mxGeometry relative="1" as="geometry" />
        </mxCell>
        <mxCell id="eIaxBUfPHbvmFYsHHjmo-74" value="run()" style="whiteSpace=wrap;html=1;rounded=0;labelBackgroundColor=none;fillColor=#dae8fc;strokeColor=#6c8ebf;" parent="1" vertex="1">
          <mxGeometry x="1125.25" y="1510" width="116.5" height="40" as="geometry" />
        </mxCell>
        <mxCell id="eIaxBUfPHbvmFYsHHjmo-81" value="" style="edgeStyle=orthogonalEdgeStyle;rounded=0;jumpStyle=none;jumpSize=1;orthogonalLoop=1;jettySize=auto;html=1;fontColor=#000000;" parent="1" source="eIaxBUfPHbvmFYsHHjmo-77" target="eIaxBUfPHbvmFYsHHjmo-80" edge="1">
          <mxGeometry relative="1" as="geometry" />
        </mxCell>
        <mxCell id="eIaxBUfPHbvmFYsHHjmo-82" value="reqApi" style="edgeLabel;html=1;align=center;verticalAlign=middle;resizable=0;points=[];fontColor=#000000;" parent="eIaxBUfPHbvmFYsHHjmo-81" vertex="1" connectable="0">
          <mxGeometry x="-0.0583" y="-2" relative="1" as="geometry">
            <mxPoint as="offset" />
          </mxGeometry>
        </mxCell>
        <mxCell id="eIaxBUfPHbvmFYsHHjmo-77" value="serverProxy.&lt;font color=&quot;#ff0000&quot;&gt;sendBeat&lt;/font&gt;" style="whiteSpace=wrap;html=1;rounded=0;labelBackgroundColor=none;fillColor=#dae8fc;strokeColor=#6c8ebf;" parent="1" vertex="1">
          <mxGeometry x="1110.25" y="1590" width="146.5" height="60" as="geometry" />
        </mxCell>
        <mxCell id="eIaxBUfPHbvmFYsHHjmo-83" style="edgeStyle=orthogonalEdgeStyle;rounded=0;jumpStyle=none;jumpSize=1;orthogonalLoop=1;jettySize=auto;html=1;exitX=0;exitY=0.5;exitDx=0;exitDy=0;fontColor=#000000;entryX=1;entryY=0.5;entryDx=0;entryDy=0;dashed=1;" parent="1" source="eIaxBUfPHbvmFYsHHjmo-80" target="eIaxBUfPHbvmFYsHHjmo-45" edge="1">
          <mxGeometry relative="1" as="geometry">
            <mxPoint x="960" y="1960" as="targetPoint" />
          </mxGeometry>
        </mxCell>
        <mxCell id="eIaxBUfPHbvmFYsHHjmo-85" value="" style="edgeStyle=orthogonalEdgeStyle;rounded=0;jumpStyle=none;jumpSize=1;orthogonalLoop=1;jettySize=auto;html=1;dashed=1;fontColor=#000000;" parent="1" source="eIaxBUfPHbvmFYsHHjmo-80" target="eIaxBUfPHbvmFYsHHjmo-84" edge="1">
          <mxGeometry relative="1" as="geometry" />
        </mxCell>
        <mxCell id="eIaxBUfPHbvmFYsHHjmo-80" value="&lt;font color=&quot;#ff0000&quot;&gt;PUT /nacos/v1/ns/instance/beat&lt;/font&gt;&lt;br&gt;发送实例心跳" style="whiteSpace=wrap;html=1;rounded=0;labelBackgroundColor=none;fillColor=#ffe6cc;strokeColor=#d79b00;" parent="1" vertex="1">
          <mxGeometry x="1080.25" y="1724" width="206.5" height="56" as="geometry" />
        </mxCell>
        <mxCell id="eIaxBUfPHbvmFYsHHjmo-86" style="edgeStyle=orthogonalEdgeStyle;rounded=0;jumpStyle=none;jumpSize=1;orthogonalLoop=1;jettySize=auto;html=1;exitX=1;exitY=0.5;exitDx=0;exitDy=0;entryX=1;entryY=0.5;entryDx=0;entryDy=0;dashed=1;fontColor=#FF0000;" parent="1" source="eIaxBUfPHbvmFYsHHjmo-84" target="eIaxBUfPHbvmFYsHHjmo-74" edge="1">
          <mxGeometry relative="1" as="geometry">
            <Array as="points">
              <mxPoint x="1420" y="1835" />
              <mxPoint x="1420" y="1530" />
            </Array>
          </mxGeometry>
        </mxCell>
        <mxCell id="eIaxBUfPHbvmFYsHHjmo-87" value="每 5s 循环调用" style="edgeLabel;html=1;align=center;verticalAlign=middle;resizable=0;points=[];fontColor=#FF0000;" parent="eIaxBUfPHbvmFYsHHjmo-86" vertex="1" connectable="0">
          <mxGeometry x="-0.3681" y="-2" relative="1" as="geometry">
            <mxPoint as="offset" />
          </mxGeometry>
        </mxCell>
        <mxCell id="eIaxBUfPHbvmFYsHHjmo-84" value="executorService.&lt;font color=&quot;#ff0000&quot;&gt;schedule&lt;/font&gt;(new BeatTask(beatInfo), nextTime, TimeUnit.MILLISECONDS);" style="whiteSpace=wrap;html=1;fillColor=#ffe6cc;strokeColor=#d79b00;rounded=0;labelBackgroundColor=none;" parent="1" vertex="1">
          <mxGeometry x="1035.25" y="1810" width="296.5" height="50" as="geometry" />
        </mxCell>
        <mxCell id="eIaxBUfPHbvmFYsHHjmo-91" value="" style="edgeStyle=orthogonalEdgeStyle;rounded=0;jumpStyle=none;jumpSize=1;orthogonalLoop=1;jettySize=auto;html=1;fontColor=#000000;" parent="1" source="eIaxBUfPHbvmFYsHHjmo-88" target="eIaxBUfPHbvmFYsHHjmo-90" edge="1">
          <mxGeometry relative="1" as="geometry" />
        </mxCell>
        <mxCell id="eIaxBUfPHbvmFYsHHjmo-88" value="&lt;font color=&quot;#ff0000&quot;&gt;InstanceController#beat&lt;/font&gt;&lt;br&gt;客户端心跳发送" style="whiteSpace=wrap;html=1;fillColor=#dae8fc;strokeColor=#6c8ebf;labelBackgroundColor=none;" parent="1" vertex="1">
          <mxGeometry x="832.5" y="2060" width="155" height="60" as="geometry" />
        </mxCell>
        <mxCell id="eIaxBUfPHbvmFYsHHjmo-93" value="" style="edgeStyle=orthogonalEdgeStyle;rounded=0;jumpStyle=none;jumpSize=1;orthogonalLoop=1;jettySize=auto;html=1;fontColor=#FF0000;" parent="1" source="eIaxBUfPHbvmFYsHHjmo-90" target="eIaxBUfPHbvmFYsHHjmo-92" edge="1">
          <mxGeometry relative="1" as="geometry" />
        </mxCell>
        <mxCell id="eIaxBUfPHbvmFYsHHjmo-90" value="&lt;font color=&quot;#ff0000&quot;&gt;clientBeat&lt;/font&gt; = JacksonUtils.toObj(beat, RsInfo.class);&lt;br&gt;获取客户端传递的心跳信息" style="whiteSpace=wrap;html=1;labelBackgroundColor=none;" parent="1" vertex="1">
          <mxGeometry x="765" y="2170" width="290" height="60" as="geometry" />
        </mxCell>
        <mxCell id="eIaxBUfPHbvmFYsHHjmo-97" value="" style="edgeStyle=orthogonalEdgeStyle;rounded=0;jumpStyle=none;jumpSize=1;orthogonalLoop=1;jettySize=auto;html=1;fontColor=#FF0000;" parent="1" source="eIaxBUfPHbvmFYsHHjmo-92" target="eIaxBUfPHbvmFYsHHjmo-96" edge="1">
          <mxGeometry relative="1" as="geometry" />
        </mxCell>
        <mxCell id="eIaxBUfPHbvmFYsHHjmo-92" value="Instance &lt;font color=&quot;#ff0000&quot;&gt;instance&lt;/font&gt; = serviceManager.getInstance" style="whiteSpace=wrap;html=1;labelBackgroundColor=none;" parent="1" vertex="1">
          <mxGeometry x="770" y="2270" width="280" height="60" as="geometry" />
        </mxCell>
        <mxCell id="eIaxBUfPHbvmFYsHHjmo-99" value="" style="edgeStyle=orthogonalEdgeStyle;rounded=0;jumpStyle=none;jumpSize=1;orthogonalLoop=1;jettySize=auto;html=1;fontColor=#FF0000;" parent="1" source="eIaxBUfPHbvmFYsHHjmo-96" target="eIaxBUfPHbvmFYsHHjmo-98" edge="1">
          <mxGeometry relative="1" as="geometry" />
        </mxCell>
        <mxCell id="eIaxBUfPHbvmFYsHHjmo-100" value="&lt;font color=&quot;#000000&quot;&gt;是&lt;/font&gt;" style="edgeLabel;html=1;align=center;verticalAlign=middle;resizable=0;points=[];fontColor=#FF0000;" parent="eIaxBUfPHbvmFYsHHjmo-99" vertex="1" connectable="0">
          <mxGeometry x="-0.0342" y="-2" relative="1" as="geometry">
            <mxPoint as="offset" />
          </mxGeometry>
        </mxCell>
        <mxCell id="eIaxBUfPHbvmFYsHHjmo-102" value="" style="edgeStyle=orthogonalEdgeStyle;rounded=0;jumpStyle=none;jumpSize=1;orthogonalLoop=1;jettySize=auto;html=1;fontColor=#FF0000;" parent="1" source="eIaxBUfPHbvmFYsHHjmo-96" target="eIaxBUfPHbvmFYsHHjmo-101" edge="1">
          <mxGeometry relative="1" as="geometry" />
        </mxCell>
        <mxCell id="eIaxBUfPHbvmFYsHHjmo-103" value="&lt;font color=&quot;#000000&quot;&gt;否&lt;/font&gt;" style="edgeLabel;html=1;align=center;verticalAlign=middle;resizable=0;points=[];fontColor=#FF0000;" parent="eIaxBUfPHbvmFYsHHjmo-102" vertex="1" connectable="0">
          <mxGeometry x="-0.1787" y="2" relative="1" as="geometry">
            <mxPoint as="offset" />
          </mxGeometry>
        </mxCell>
        <mxCell id="eIaxBUfPHbvmFYsHHjmo-96" value="instance == null" style="rhombus;whiteSpace=wrap;html=1;labelBackgroundColor=none;fillColor=#fff2cc;strokeColor=#d6b656;" parent="1" vertex="1">
          <mxGeometry x="845" y="2374" width="130" height="70" as="geometry" />
        </mxCell>
        <mxCell id="eIaxBUfPHbvmFYsHHjmo-104" style="edgeStyle=orthogonalEdgeStyle;rounded=0;jumpStyle=none;jumpSize=1;orthogonalLoop=1;jettySize=auto;html=1;exitX=0.5;exitY=1;exitDx=0;exitDy=0;entryX=0;entryY=0.5;entryDx=0;entryDy=0;fontColor=#000000;" parent="1" source="eIaxBUfPHbvmFYsHHjmo-98" target="eIaxBUfPHbvmFYsHHjmo-101" edge="1">
          <mxGeometry relative="1" as="geometry" />
        </mxCell>
        <mxCell id="eIaxBUfPHbvmFYsHHjmo-98" value="serviceManager.&lt;font color=&quot;#ff0000&quot;&gt;registerInstance&lt;/font&gt;" style="whiteSpace=wrap;html=1;labelBackgroundColor=none;fillColor=#d5e8d4;strokeColor=#82b366;" parent="1" vertex="1">
          <mxGeometry x="576.25" y="2378.5" width="200" height="61" as="geometry" />
        </mxCell>
        <mxCell id="eIaxBUfPHbvmFYsHHjmo-106" value="" style="edgeStyle=orthogonalEdgeStyle;rounded=0;jumpStyle=none;jumpSize=1;orthogonalLoop=1;jettySize=auto;html=1;fontColor=#FF0000;" parent="1" source="eIaxBUfPHbvmFYsHHjmo-101" target="eIaxBUfPHbvmFYsHHjmo-105" edge="1">
          <mxGeometry relative="1" as="geometry" />
        </mxCell>
        <mxCell id="eIaxBUfPHbvmFYsHHjmo-107" value="&lt;font color=&quot;#000000&quot;&gt;立即执行更新&lt;/font&gt;" style="edgeLabel;html=1;align=center;verticalAlign=middle;resizable=0;points=[];fontColor=#FF0000;" parent="eIaxBUfPHbvmFYsHHjmo-106" vertex="1" connectable="0">
          <mxGeometry x="-0.036" y="-2" relative="1" as="geometry">
            <mxPoint as="offset" />
          </mxGeometry>
        </mxCell>
        <mxCell id="eIaxBUfPHbvmFYsHHjmo-101" value="service.&lt;font color=&quot;#ff0000&quot;&gt;processClientBeat&lt;/font&gt;(clientBeat);" style="whiteSpace=wrap;html=1;labelBackgroundColor=none;" parent="1" vertex="1">
          <mxGeometry x="795" y="2500" width="230" height="61" as="geometry" />
        </mxCell>
        <mxCell id="eIaxBUfPHbvmFYsHHjmo-109" value="" style="edgeStyle=orthogonalEdgeStyle;rounded=0;jumpStyle=none;jumpSize=1;orthogonalLoop=1;jettySize=auto;html=1;fontColor=#FF0000;" parent="1" source="eIaxBUfPHbvmFYsHHjmo-105" target="eIaxBUfPHbvmFYsHHjmo-108" edge="1">
          <mxGeometry relative="1" as="geometry" />
        </mxCell>
        <mxCell id="eIaxBUfPHbvmFYsHHjmo-111" value="" style="edgeStyle=orthogonalEdgeStyle;rounded=0;jumpStyle=none;jumpSize=1;orthogonalLoop=1;jettySize=auto;html=1;fontColor=#FF0000;" parent="1" source="eIaxBUfPHbvmFYsHHjmo-105" target="eIaxBUfPHbvmFYsHHjmo-108" edge="1">
          <mxGeometry relative="1" as="geometry" />
        </mxCell>
        <mxCell id="eIaxBUfPHbvmFYsHHjmo-112" value="&lt;span style=&quot;font-size: 12px ; color: rgb(0 , 0 , 0) ; background-color: rgb(248 , 249 , 250)&quot;&gt;clientBeatProcessor.&lt;/span&gt;run()" style="edgeLabel;html=1;align=center;verticalAlign=middle;resizable=0;points=[];fontColor=#FF0000;" parent="eIaxBUfPHbvmFYsHHjmo-111" vertex="1" connectable="0">
          <mxGeometry x="-0.2387" y="1" relative="1" as="geometry">
            <mxPoint as="offset" />
          </mxGeometry>
        </mxCell>
        <mxCell id="eIaxBUfPHbvmFYsHHjmo-105" value="HealthCheckReactor.&lt;font color=&quot;#ff0000&quot;&gt;scheduleNow&lt;/font&gt;(clientBeatProcessor);" style="whiteSpace=wrap;html=1;labelBackgroundColor=none;fillColor=#d5e8d4;strokeColor=#82b366;" parent="1" vertex="1">
          <mxGeometry x="745" y="2610" width="330" height="51.5" as="geometry" />
        </mxCell>
        <mxCell id="eIaxBUfPHbvmFYsHHjmo-108" value="instance.&lt;font color=&quot;#ff0000&quot;&gt;setLastBeat&lt;/font&gt;(System.currentTimeMillis());&lt;br&gt;设置最后一次心跳时间" style="whiteSpace=wrap;html=1;labelBackgroundColor=none;fillColor=#dae8fc;strokeColor=#6c8ebf;" parent="1" vertex="1">
          <mxGeometry x="765" y="2724" width="290" height="62.75" as="geometry" />
        </mxCell>
        <mxCell id="eIaxBUfPHbvmFYsHHjmo-113" value="&lt;font color=&quot;#000000&quot;&gt;List&amp;lt;Instance&amp;gt; instances = &lt;/font&gt;&lt;font color=&quot;#ff0000&quot;&gt;service.allIPs(true)&lt;/font&gt;;" style="rounded=0;whiteSpace=wrap;html=1;labelBackgroundColor=none;fillColor=#dae8fc;strokeColor=#6c8ebf;" parent="1" vertex="1">
          <mxGeometry x="2545.6" y="2102.75" width="260" height="50" as="geometry" />
        </mxCell>
        <mxCell id="eIaxBUfPHbvmFYsHHjmo-120" value="" style="edgeStyle=orthogonalEdgeStyle;rounded=0;jumpStyle=none;jumpSize=1;orthogonalLoop=1;jettySize=auto;html=1;fontColor=#FF0000;" parent="1" source="eIaxBUfPHbvmFYsHHjmo-116" target="eIaxBUfPHbvmFYsHHjmo-119" edge="1">
          <mxGeometry relative="1" as="geometry" />
        </mxCell>
        <mxCell id="eIaxBUfPHbvmFYsHHjmo-116" value="getPushService().serviceChanged(this);" style="whiteSpace=wrap;html=1;fillColor=#f8cecc;strokeColor=#b85450;" parent="1" vertex="1">
          <mxGeometry x="2198.1" y="2647.75" width="265" height="61.5" as="geometry" />
        </mxCell>
        <mxCell id="eIaxBUfPHbvmFYsHHjmo-122" style="edgeStyle=orthogonalEdgeStyle;rounded=0;jumpStyle=none;jumpSize=1;orthogonalLoop=1;jettySize=auto;html=1;exitX=0.5;exitY=1;exitDx=0;exitDy=0;entryX=0.5;entryY=0;entryDx=0;entryDy=0;fontColor=#FF0000;dashed=1;" parent="1" source="eIaxBUfPHbvmFYsHHjmo-119" target="eIaxBUfPHbvmFYsHHjmo-121" edge="1">
          <mxGeometry relative="1" as="geometry" />
        </mxCell>
        <mxCell id="eIaxBUfPHbvmFYsHHjmo-119" value="this.applicationContext.&lt;font color=&quot;#ff0000&quot;&gt;publishEvent&lt;/font&gt;(new &lt;font color=&quot;#ff0000&quot;&gt;ServiceChangeEvent&lt;/font&gt;(this, service));" style="whiteSpace=wrap;html=1;fillColor=#f8cecc;strokeColor=#b85450;" parent="1" vertex="1">
          <mxGeometry x="2115.6" y="2770" width="430" height="60" as="geometry" />
        </mxCell>
        <mxCell id="eIaxBUfPHbvmFYsHHjmo-124" value="" style="edgeStyle=orthogonalEdgeStyle;rounded=0;jumpStyle=none;jumpSize=1;orthogonalLoop=1;jettySize=auto;html=1;fontColor=#FF0000;" parent="1" source="eIaxBUfPHbvmFYsHHjmo-121" target="eIaxBUfPHbvmFYsHHjmo-123" edge="1">
          <mxGeometry relative="1" as="geometry" />
        </mxCell>
        <mxCell id="eIaxBUfPHbvmFYsHHjmo-121" value="PushService#&lt;font color=&quot;#ff0000&quot;&gt;onApplicationEvent&lt;/font&gt;" style="rounded=0;whiteSpace=wrap;html=1;labelBackgroundColor=none;fillColor=#ffe6cc;strokeColor=#d79b00;" parent="1" vertex="1">
          <mxGeometry x="2200.6" y="2893" width="260" height="60" as="geometry" />
        </mxCell>
        <mxCell id="eIaxBUfPHbvmFYsHHjmo-126" value="" style="edgeStyle=orthogonalEdgeStyle;rounded=0;jumpStyle=none;jumpSize=1;orthogonalLoop=1;jettySize=auto;html=1;fontColor=#FF0000;" parent="1" source="eIaxBUfPHbvmFYsHHjmo-123" target="eIaxBUfPHbvmFYsHHjmo-125" edge="1">
          <mxGeometry relative="1" as="geometry" />
        </mxCell>
        <mxCell id="eIaxBUfPHbvmFYsHHjmo-123" value="udpPush(ackEntry);" style="whiteSpace=wrap;html=1;fillColor=#ffe6cc;strokeColor=#d79b00;rounded=0;labelBackgroundColor=none;" parent="1" vertex="1">
          <mxGeometry x="2270.6" y="3000" width="120" height="60" as="geometry" />
        </mxCell>
        <mxCell id="eIaxBUfPHbvmFYsHHjmo-125" value="udpSocket.send(ackEntry.origin);" style="whiteSpace=wrap;html=1;fillColor=#ffe6cc;strokeColor=#d79b00;rounded=0;labelBackgroundColor=none;" parent="1" vertex="1">
          <mxGeometry x="2220.9" y="3100" width="219.4" height="60" as="geometry" />
        </mxCell>
        <mxCell id="eIaxBUfPHbvmFYsHHjmo-129" style="edgeStyle=orthogonalEdgeStyle;rounded=0;jumpStyle=none;jumpSize=1;orthogonalLoop=1;jettySize=auto;html=1;exitX=0.5;exitY=1;exitDx=0;exitDy=0;entryX=0.5;entryY=0;entryDx=0;entryDy=0;fontColor=#000000;" parent="1" source="eIaxBUfPHbvmFYsHHjmo-127" target="eIaxBUfPHbvmFYsHHjmo-113" edge="1">
          <mxGeometry relative="1" as="geometry" />
        </mxCell>
        <mxCell id="eIaxBUfPHbvmFYsHHjmo-131" value="" style="edgeStyle=orthogonalEdgeStyle;rounded=0;jumpStyle=none;jumpSize=1;orthogonalLoop=1;jettySize=auto;html=1;fontColor=#000000;" parent="1" source="eIaxBUfPHbvmFYsHHjmo-127" target="eIaxBUfPHbvmFYsHHjmo-130" edge="1">
          <mxGeometry relative="1" as="geometry" />
        </mxCell>
        <mxCell id="eIaxBUfPHbvmFYsHHjmo-136" value="集群心跳" style="edgeLabel;html=1;align=center;verticalAlign=middle;resizable=0;points=[];fontColor=#000000;" parent="eIaxBUfPHbvmFYsHHjmo-131" vertex="1" connectable="0">
          <mxGeometry x="-0.0849" relative="1" as="geometry">
            <mxPoint as="offset" />
          </mxGeometry>
        </mxCell>
        <mxCell id="eIaxBUfPHbvmFYsHHjmo-127" value="&lt;font color=&quot;#000000&quot;&gt;getDistroMapper().responsible(service.getName())&lt;/font&gt;" style="rounded=0;whiteSpace=wrap;html=1;labelBackgroundColor=none;fillColor=#fff2cc;strokeColor=#d6b656;" parent="1" vertex="1">
          <mxGeometry x="2534.4" y="2010" width="282.4" height="50" as="geometry" />
        </mxCell>
        <mxCell id="eIaxBUfPHbvmFYsHHjmo-130" value="int target = distroHash(serviceName) % servers.size();" style="whiteSpace=wrap;html=1;fillColor=#f8cecc;strokeColor=#b85450;rounded=0;labelBackgroundColor=none;" parent="1" vertex="1">
          <mxGeometry x="2910" y="2007.5" width="312" height="55" as="geometry" />
        </mxCell>
        <mxCell id="eIaxBUfPHbvmFYsHHjmo-135" style="edgeStyle=orthogonalEdgeStyle;rounded=0;jumpStyle=none;jumpSize=1;orthogonalLoop=1;jettySize=auto;html=1;exitX=0.5;exitY=0;exitDx=0;exitDy=0;exitPerimeter=0;fontColor=#000000;dashed=1;" parent="1" source="eIaxBUfPHbvmFYsHHjmo-133" target="eIaxBUfPHbvmFYsHHjmo-130" edge="1">
          <mxGeometry relative="1" as="geometry" />
        </mxCell>
        <mxCell id="eIaxBUfPHbvmFYsHHjmo-133" value="集群环境下对服务器数量取模&lt;br&gt;保证只有一台机器可以进行心跳健康检测" style="shape=note;whiteSpace=wrap;html=1;backgroundOutline=1;darkOpacity=0.05;labelBackgroundColor=none;fillColor=#fff2cc;strokeColor=#d6b656;" parent="1" vertex="1">
          <mxGeometry x="2946" y="2100" width="240" height="100" as="geometry" />
        </mxCell>
        <mxCell id="eIaxBUfPHbvmFYsHHjmo-139" value="" style="edgeStyle=orthogonalEdgeStyle;rounded=0;jumpStyle=none;jumpSize=1;orthogonalLoop=1;jettySize=auto;html=1;dashed=1;fontColor=#FF0000;" parent="1" source="eIaxBUfPHbvmFYsHHjmo-137" target="eIaxBUfPHbvmFYsHHjmo-138" edge="1">
          <mxGeometry relative="1" as="geometry" />
        </mxCell>
        <mxCell id="eIaxBUfPHbvmFYsHHjmo-140" value="run()" style="edgeLabel;html=1;align=center;verticalAlign=middle;resizable=0;points=[];fontColor=#FF0000;" parent="eIaxBUfPHbvmFYsHHjmo-139" vertex="1" connectable="0">
          <mxGeometry x="-0.1474" y="3" relative="1" as="geometry">
            <mxPoint as="offset" />
          </mxGeometry>
        </mxCell>
        <mxCell id="eIaxBUfPHbvmFYsHHjmo-137" value="&lt;font color=&quot;#ff0000&quot;&gt;ServerStatusReporter&lt;/font&gt;&lt;br&gt;服务器状态报告者" style="rounded=0;whiteSpace=wrap;html=1;labelBackgroundColor=none;fillColor=#d5e8d4;strokeColor=#82b366;" parent="1" vertex="1">
          <mxGeometry x="1409.95" y="380" width="175" height="60" as="geometry" />
        </mxCell>
        <mxCell id="eIaxBUfPHbvmFYsHHjmo-142" value="" style="edgeStyle=orthogonalEdgeStyle;rounded=0;jumpStyle=none;jumpSize=1;orthogonalLoop=1;jettySize=auto;html=1;fontColor=#FF0000;" parent="1" source="eIaxBUfPHbvmFYsHHjmo-138" target="eIaxBUfPHbvmFYsHHjmo-141" edge="1">
          <mxGeometry relative="1" as="geometry" />
        </mxCell>
        <mxCell id="eIaxBUfPHbvmFYsHHjmo-143" value="循环，并排出自身" style="edgeLabel;html=1;align=center;verticalAlign=middle;resizable=0;points=[];fontColor=#FF0000;" parent="eIaxBUfPHbvmFYsHHjmo-142" vertex="1" connectable="0">
          <mxGeometry x="-0.0302" y="1" relative="1" as="geometry">
            <mxPoint as="offset" />
          </mxGeometry>
        </mxCell>
        <mxCell id="eIaxBUfPHbvmFYsHHjmo-138" value="List&amp;lt;Member&amp;gt; allServers = getServers();" style="whiteSpace=wrap;html=1;fontColor=#000000;rounded=0;labelBackgroundColor=none;" parent="1" vertex="1">
          <mxGeometry x="1371.2" y="490" width="252.5" height="60" as="geometry" />
        </mxCell>
        <mxCell id="eIaxBUfPHbvmFYsHHjmo-145" value="" style="edgeStyle=orthogonalEdgeStyle;rounded=0;jumpStyle=none;jumpSize=1;orthogonalLoop=1;jettySize=auto;html=1;fontColor=#FF0000;" parent="1" source="eIaxBUfPHbvmFYsHHjmo-141" target="eIaxBUfPHbvmFYsHHjmo-144" edge="1">
          <mxGeometry relative="1" as="geometry" />
        </mxCell>
        <mxCell id="eIaxBUfPHbvmFYsHHjmo-141" value="synchronizer.send(server.getAddress(), msg);" style="whiteSpace=wrap;html=1;fontColor=#000000;rounded=0;labelBackgroundColor=none;" parent="1" vertex="1">
          <mxGeometry x="1368.7" y="610" width="257.5" height="60" as="geometry" />
        </mxCell>
        <mxCell id="eIaxBUfPHbvmFYsHHjmo-144" value="&lt;font color=&quot;#ff0000&quot;&gt;GET nacos/v1/ns//operator/server/status&lt;/font&gt;&lt;br&gt;服务器状态同步" style="whiteSpace=wrap;html=1;rounded=0;labelBackgroundColor=none;fillColor=#ffe6cc;strokeColor=#d79b00;" parent="1" vertex="1">
          <mxGeometry x="1363.7" y="710" width="267.5" height="60" as="geometry" />
        </mxCell>
        <mxCell id="eIaxBUfPHbvmFYsHHjmo-148" value="" style="edgeStyle=orthogonalEdgeStyle;rounded=0;jumpStyle=none;jumpSize=1;orthogonalLoop=1;jettySize=auto;html=1;fontColor=#FF0000;" parent="1" source="eIaxBUfPHbvmFYsHHjmo-146" target="eIaxBUfPHbvmFYsHHjmo-147" edge="1">
          <mxGeometry relative="1" as="geometry" />
        </mxCell>
        <mxCell id="eIaxBUfPHbvmFYsHHjmo-146" value="&lt;font color=&quot;#ff0000&quot;&gt;@PostConstruct&lt;/font&gt;&lt;br&gt;&lt;font color=&quot;#000000&quot;&gt;ServerListManager#init&lt;/font&gt;" style="rounded=0;whiteSpace=wrap;html=1;labelBackgroundColor=none;fillColor=#dae8fc;strokeColor=#6c8ebf;" parent="1" vertex="1">
          <mxGeometry x="1412.45" y="190" width="170" height="60" as="geometry" />
        </mxCell>
        <mxCell id="eIaxBUfPHbvmFYsHHjmo-150" style="edgeStyle=orthogonalEdgeStyle;rounded=0;jumpStyle=none;jumpSize=1;orthogonalLoop=1;jettySize=auto;html=1;exitX=0.5;exitY=1;exitDx=0;exitDy=0;fontColor=#FF0000;" parent="1" source="eIaxBUfPHbvmFYsHHjmo-147" target="eIaxBUfPHbvmFYsHHjmo-137" edge="1">
          <mxGeometry relative="1" as="geometry" />
        </mxCell>
        <mxCell id="eIaxBUfPHbvmFYsHHjmo-147" value="GlobalExecutor.registerServerStatusReporter(&lt;font color=&quot;#ff0000&quot;&gt;new ServerStatusReporter()&lt;/font&gt;, 2000); GlobalExecutor.registerServerInfoUpdater(&lt;font color=&quot;#ff0000&quot;&gt;new ServerInfoUpdater()&lt;/font&gt;);" style="whiteSpace=wrap;html=1;fillColor=#dae8fc;strokeColor=#6c8ebf;rounded=0;labelBackgroundColor=none;" parent="1" vertex="1">
          <mxGeometry x="1269.95" y="280" width="455" height="60" as="geometry" />
        </mxCell>
        <mxCell id="eIaxBUfPHbvmFYsHHjmo-152" value="" style="edgeStyle=orthogonalEdgeStyle;rounded=0;jumpStyle=none;jumpSize=1;orthogonalLoop=1;jettySize=auto;html=1;fontColor=#FF0000;entryX=0.5;entryY=0;entryDx=0;entryDy=0;" parent="1" source="eIaxBUfPHbvmFYsHHjmo-149" target="eIaxBUfPHbvmFYsHHjmo-153" edge="1">
          <mxGeometry relative="1" as="geometry">
            <mxPoint x="2032.5026315789473" y="280.0000000000001" as="targetPoint" />
          </mxGeometry>
        </mxCell>
        <mxCell id="eIaxBUfPHbvmFYsHHjmo-149" value="&lt;font color=&quot;#ff0000&quot;&gt;@PostConstruct&lt;br&gt;&lt;/font&gt;&lt;font color=&quot;#000000&quot;&gt;ServiceManager#init&lt;/font&gt;" style="rounded=0;whiteSpace=wrap;html=1;labelBackgroundColor=none;fillColor=#dae8fc;strokeColor=#6c8ebf;" parent="1" vertex="1">
          <mxGeometry x="1959.4999999999998" y="190" width="146" height="60" as="geometry" />
        </mxCell>
        <mxCell id="eIaxBUfPHbvmFYsHHjmo-155" value="" style="edgeStyle=orthogonalEdgeStyle;rounded=0;jumpStyle=none;jumpSize=1;orthogonalLoop=1;jettySize=auto;html=1;fontColor=#FF0000;" parent="1" source="eIaxBUfPHbvmFYsHHjmo-153" target="eIaxBUfPHbvmFYsHHjmo-154" edge="1">
          <mxGeometry relative="1" as="geometry" />
        </mxCell>
        <mxCell id="eIaxBUfPHbvmFYsHHjmo-153" value="GlobalExecutor.scheduleServiceReporter(&lt;font color=&quot;#ff0000&quot;&gt;new ServiceReporter()&lt;/font&gt;, 60000, TimeUnit.MILLISECONDS);" style="whiteSpace=wrap;html=1;fillColor=#dae8fc;strokeColor=#6c8ebf;rounded=0;labelBackgroundColor=none;" parent="1" vertex="1">
          <mxGeometry x="1752.4999999999998" y="280" width="560" height="55" as="geometry" />
        </mxCell>
        <mxCell id="eIaxBUfPHbvmFYsHHjmo-157" value="" style="edgeStyle=orthogonalEdgeStyle;rounded=0;jumpStyle=none;jumpSize=1;orthogonalLoop=1;jettySize=auto;html=1;fontColor=#000000;" parent="1" source="eIaxBUfPHbvmFYsHHjmo-154" target="eIaxBUfPHbvmFYsHHjmo-156" edge="1">
          <mxGeometry relative="1" as="geometry" />
        </mxCell>
        <mxCell id="eIaxBUfPHbvmFYsHHjmo-154" value="&lt;font color=&quot;#ff0000&quot;&gt;ServiceReporter&lt;/font&gt;&lt;br&gt;服务信息报告者" style="whiteSpace=wrap;html=1;fillColor=#d5e8d4;strokeColor=#82b366;rounded=0;labelBackgroundColor=none;" parent="1" vertex="1">
          <mxGeometry x="1957.5200000000002" y="375" width="149.95" height="60" as="geometry" />
        </mxCell>
        <mxCell id="eIaxBUfPHbvmFYsHHjmo-159" value="" style="edgeStyle=orthogonalEdgeStyle;rounded=0;jumpStyle=none;jumpSize=1;orthogonalLoop=1;jettySize=auto;html=1;fontColor=#000000;" parent="1" source="eIaxBUfPHbvmFYsHHjmo-156" target="eIaxBUfPHbvmFYsHHjmo-158" edge="1">
          <mxGeometry relative="1" as="geometry" />
        </mxCell>
        <mxCell id="eIaxBUfPHbvmFYsHHjmo-160" value="&lt;span style=&quot;color: rgb(255 , 0 , 0)&quot;&gt;循环，并排出自身&lt;/span&gt;" style="edgeLabel;html=1;align=center;verticalAlign=middle;resizable=0;points=[];fontColor=#000000;" parent="eIaxBUfPHbvmFYsHHjmo-159" vertex="1" connectable="0">
          <mxGeometry x="0.0237" y="-1" relative="1" as="geometry">
            <mxPoint as="offset" />
          </mxGeometry>
        </mxCell>
        <mxCell id="eIaxBUfPHbvmFYsHHjmo-156" value="Collection&amp;lt;Member&amp;gt; sameSiteServers = memberManager.allMembers();" style="whiteSpace=wrap;html=1;rounded=0;labelBackgroundColor=none;" parent="1" vertex="1">
          <mxGeometry x="1822.5200000000002" y="485" width="419.95" height="60" as="geometry" />
        </mxCell>
        <mxCell id="eIaxBUfPHbvmFYsHHjmo-162" value="" style="edgeStyle=orthogonalEdgeStyle;rounded=0;jumpStyle=none;jumpSize=1;orthogonalLoop=1;jettySize=auto;html=1;fontColor=#000000;" parent="1" source="eIaxBUfPHbvmFYsHHjmo-158" target="eIaxBUfPHbvmFYsHHjmo-161" edge="1">
          <mxGeometry relative="1" as="geometry" />
        </mxCell>
        <mxCell id="eIaxBUfPHbvmFYsHHjmo-158" value="synchronizer.send(server.getAddress(), msg);" style="whiteSpace=wrap;html=1;rounded=0;labelBackgroundColor=none;" parent="1" vertex="1">
          <mxGeometry x="1897.5200000000002" y="610" width="269.95" height="60" as="geometry" />
        </mxCell>
        <mxCell id="eIaxBUfPHbvmFYsHHjmo-161" value="&lt;font color=&quot;#ff0000&quot;&gt;POST nacos/v1/ns//operator/service/status&lt;/font&gt;&lt;br&gt;&lt;span&gt;服务器状态同步&lt;/span&gt;" style="whiteSpace=wrap;html=1;rounded=0;labelBackgroundColor=none;fillColor=#ffe6cc;strokeColor=#d79b00;" parent="1" vertex="1">
          <mxGeometry x="1902.5200000000002" y="707.5" width="259.95" height="65" as="geometry" />
        </mxCell>
        <mxCell id="eIaxBUfPHbvmFYsHHjmo-168" value="" style="edgeStyle=orthogonalEdgeStyle;rounded=0;jumpStyle=none;jumpSize=1;orthogonalLoop=1;jettySize=auto;html=1;fontColor=#FF0000;" parent="1" source="eIaxBUfPHbvmFYsHHjmo-163" target="eIaxBUfPHbvmFYsHHjmo-167" edge="1">
          <mxGeometry relative="1" as="geometry" />
        </mxCell>
        <mxCell id="eIaxBUfPHbvmFYsHHjmo-169" value="memberManager.allMembersWithoutSelf()" style="edgeLabel;html=1;align=center;verticalAlign=middle;resizable=0;points=[];fontColor=#FF0000;" parent="eIaxBUfPHbvmFYsHHjmo-168" vertex="1" connectable="0">
          <mxGeometry x="-0.0947" y="1" relative="1" as="geometry">
            <mxPoint as="offset" />
          </mxGeometry>
        </mxCell>
        <mxCell id="eIaxBUfPHbvmFYsHHjmo-163" value="distroProtocol.sync" style="whiteSpace=wrap;html=1;fillColor=#f8cecc;strokeColor=#b85450;" parent="1" vertex="1">
          <mxGeometry x="2160" y="2000" width="120" height="60" as="geometry" />
        </mxCell>
        <mxCell id="eIaxBUfPHbvmFYsHHjmo-167" value="distroTaskEngineHolder.getDelayTaskExecuteEngine().addTask" style="whiteSpace=wrap;html=1;" parent="1" vertex="1">
          <mxGeometry x="2040" y="2115" width="360" height="65" as="geometry" />
        </mxCell>
        <mxCell id="284Kl3MK39Rh_IGzR82f-1" value="" style="group" vertex="1" connectable="0" parent="1">
          <mxGeometry x="60" y="200" width="1040" height="600" as="geometry" />
        </mxCell>
        <mxCell id="2PmmHMX1RF9NsNLcKvbn-46" value="" style="rounded=0;whiteSpace=wrap;html=1;labelBackgroundColor=none;fontColor=#333333;fillColor=#f5f5f5;strokeColor=#666666;" parent="284Kl3MK39Rh_IGzR82f-1" vertex="1">
          <mxGeometry y="10" width="1040" height="590" as="geometry" />
        </mxCell>
        <mxCell id="2PmmHMX1RF9NsNLcKvbn-48" value="namespace（dev）" style="rounded=1;whiteSpace=wrap;html=1;labelBackgroundColor=none;fillColor=#ffe6cc;strokeColor=#d79b00;" parent="284Kl3MK39Rh_IGzR82f-1" vertex="1">
          <mxGeometry x="40" width="120" height="30" as="geometry" />
        </mxCell>
        <mxCell id="2PmmHMX1RF9NsNLcKvbn-49" value="" style="rounded=0;whiteSpace=wrap;html=1;labelBackgroundColor=none;fillColor=#f8cecc;strokeColor=#b85450;" parent="284Kl3MK39Rh_IGzR82f-1" vertex="1">
          <mxGeometry x="30" y="50" width="980" height="240" as="geometry" />
        </mxCell>
        <mxCell id="2PmmHMX1RF9NsNLcKvbn-50" value="group（交易组）" style="rounded=1;whiteSpace=wrap;html=1;labelBackgroundColor=none;fillColor=#ffe6cc;strokeColor=#d79b00;" parent="284Kl3MK39Rh_IGzR82f-1" vertex="1">
          <mxGeometry x="65" y="40" width="115" height="30" as="geometry" />
        </mxCell>
        <mxCell id="2PmmHMX1RF9NsNLcKvbn-51" value="" style="rounded=0;whiteSpace=wrap;html=1;labelBackgroundColor=none;fillColor=#e1d5e7;strokeColor=#9673a6;" parent="284Kl3MK39Rh_IGzR82f-1" vertex="1">
          <mxGeometry x="60" y="90" width="440" height="180" as="geometry" />
        </mxCell>
        <mxCell id="2PmmHMX1RF9NsNLcKvbn-52" value="service（订单）" style="rounded=1;whiteSpace=wrap;html=1;labelBackgroundColor=none;fillColor=#ffe6cc;strokeColor=#d79b00;" parent="284Kl3MK39Rh_IGzR82f-1" vertex="1">
          <mxGeometry x="100" y="80" width="110" height="30" as="geometry" />
        </mxCell>
        <mxCell id="2PmmHMX1RF9NsNLcKvbn-53" value="" style="rounded=0;whiteSpace=wrap;html=1;labelBackgroundColor=none;fillColor=#dae8fc;strokeColor=#6c8ebf;" parent="284Kl3MK39Rh_IGzR82f-1" vertex="1">
          <mxGeometry x="100" y="140" width="170" height="110" as="geometry" />
        </mxCell>
        <mxCell id="2PmmHMX1RF9NsNLcKvbn-54" value="cluster（SH）" style="rounded=1;whiteSpace=wrap;html=1;labelBackgroundColor=none;fillColor=#ffe6cc;strokeColor=#d79b00;" parent="284Kl3MK39Rh_IGzR82f-1" vertex="1">
          <mxGeometry x="140" y="120" width="90" height="30" as="geometry" />
        </mxCell>
        <mxCell id="2PmmHMX1RF9NsNLcKvbn-55" value="instance-order-1" style="rounded=0;whiteSpace=wrap;html=1;labelBackgroundColor=none;fillColor=#d5e8d4;strokeColor=#82b366;" parent="284Kl3MK39Rh_IGzR82f-1" vertex="1">
          <mxGeometry x="133.75" y="165" width="102.5" height="30" as="geometry" />
        </mxCell>
        <mxCell id="2PmmHMX1RF9NsNLcKvbn-64" value="instance-order-2" style="rounded=0;whiteSpace=wrap;html=1;labelBackgroundColor=none;fillColor=#d5e8d4;strokeColor=#82b366;" parent="284Kl3MK39Rh_IGzR82f-1" vertex="1">
          <mxGeometry x="133.75" y="210" width="102.5" height="30" as="geometry" />
        </mxCell>
        <mxCell id="2PmmHMX1RF9NsNLcKvbn-65" value="" style="rounded=0;whiteSpace=wrap;html=1;labelBackgroundColor=none;fillColor=#dae8fc;strokeColor=#6c8ebf;" parent="284Kl3MK39Rh_IGzR82f-1" vertex="1">
          <mxGeometry x="300" y="140" width="170" height="110" as="geometry" />
        </mxCell>
        <mxCell id="2PmmHMX1RF9NsNLcKvbn-66" value="cluster（BJ）" style="rounded=1;whiteSpace=wrap;html=1;labelBackgroundColor=none;fillColor=#ffe6cc;strokeColor=#d79b00;" parent="284Kl3MK39Rh_IGzR82f-1" vertex="1">
          <mxGeometry x="340" y="120" width="90" height="30" as="geometry" />
        </mxCell>
        <mxCell id="2PmmHMX1RF9NsNLcKvbn-67" value="instance-order-3" style="rounded=0;whiteSpace=wrap;html=1;labelBackgroundColor=none;fillColor=#d5e8d4;strokeColor=#82b366;" parent="284Kl3MK39Rh_IGzR82f-1" vertex="1">
          <mxGeometry x="333.75" y="165" width="102.5" height="30" as="geometry" />
        </mxCell>
        <mxCell id="2PmmHMX1RF9NsNLcKvbn-68" value="instance-order-4" style="rounded=0;whiteSpace=wrap;html=1;labelBackgroundColor=none;fillColor=#d5e8d4;strokeColor=#82b366;" parent="284Kl3MK39Rh_IGzR82f-1" vertex="1">
          <mxGeometry x="333.75" y="210" width="102.5" height="30" as="geometry" />
        </mxCell>
        <mxCell id="2PmmHMX1RF9NsNLcKvbn-69" value="" style="rounded=0;whiteSpace=wrap;html=1;labelBackgroundColor=none;fillColor=#e1d5e7;strokeColor=#9673a6;" parent="284Kl3MK39Rh_IGzR82f-1" vertex="1">
          <mxGeometry x="540" y="90" width="440" height="180" as="geometry" />
        </mxCell>
        <mxCell id="2PmmHMX1RF9NsNLcKvbn-70" value="service（支付）" style="rounded=1;whiteSpace=wrap;html=1;labelBackgroundColor=none;fillColor=#ffe6cc;strokeColor=#d79b00;" parent="284Kl3MK39Rh_IGzR82f-1" vertex="1">
          <mxGeometry x="580" y="80" width="110" height="30" as="geometry" />
        </mxCell>
        <mxCell id="2PmmHMX1RF9NsNLcKvbn-71" value="" style="rounded=0;whiteSpace=wrap;html=1;labelBackgroundColor=none;fillColor=#dae8fc;strokeColor=#6c8ebf;" parent="284Kl3MK39Rh_IGzR82f-1" vertex="1">
          <mxGeometry x="580" y="140" width="170" height="110" as="geometry" />
        </mxCell>
        <mxCell id="2PmmHMX1RF9NsNLcKvbn-72" value="cluster（SH）" style="rounded=1;whiteSpace=wrap;html=1;labelBackgroundColor=none;fillColor=#ffe6cc;strokeColor=#d79b00;" parent="284Kl3MK39Rh_IGzR82f-1" vertex="1">
          <mxGeometry x="620" y="120" width="90" height="30" as="geometry" />
        </mxCell>
        <mxCell id="2PmmHMX1RF9NsNLcKvbn-73" value="instance-pay-1" style="rounded=0;whiteSpace=wrap;html=1;labelBackgroundColor=none;fillColor=#d5e8d4;strokeColor=#82b366;" parent="284Kl3MK39Rh_IGzR82f-1" vertex="1">
          <mxGeometry x="613.75" y="165" width="102.5" height="30" as="geometry" />
        </mxCell>
        <mxCell id="2PmmHMX1RF9NsNLcKvbn-74" value="instance-pay-2" style="rounded=0;whiteSpace=wrap;html=1;labelBackgroundColor=none;fillColor=#d5e8d4;strokeColor=#82b366;" parent="284Kl3MK39Rh_IGzR82f-1" vertex="1">
          <mxGeometry x="613.75" y="210" width="102.5" height="30" as="geometry" />
        </mxCell>
        <mxCell id="2PmmHMX1RF9NsNLcKvbn-75" value="" style="rounded=0;whiteSpace=wrap;html=1;labelBackgroundColor=none;fillColor=#dae8fc;strokeColor=#6c8ebf;" parent="284Kl3MK39Rh_IGzR82f-1" vertex="1">
          <mxGeometry x="780" y="140" width="170" height="110" as="geometry" />
        </mxCell>
        <mxCell id="2PmmHMX1RF9NsNLcKvbn-76" value="cluster（BJ）" style="rounded=1;whiteSpace=wrap;html=1;labelBackgroundColor=none;fillColor=#ffe6cc;strokeColor=#d79b00;" parent="284Kl3MK39Rh_IGzR82f-1" vertex="1">
          <mxGeometry x="820" y="120" width="90" height="30" as="geometry" />
        </mxCell>
        <mxCell id="2PmmHMX1RF9NsNLcKvbn-77" value="instance-pay-3" style="rounded=0;whiteSpace=wrap;html=1;labelBackgroundColor=none;fillColor=#d5e8d4;strokeColor=#82b366;" parent="284Kl3MK39Rh_IGzR82f-1" vertex="1">
          <mxGeometry x="813.75" y="165" width="102.5" height="30" as="geometry" />
        </mxCell>
        <mxCell id="2PmmHMX1RF9NsNLcKvbn-78" value="instance-pay-4" style="rounded=0;whiteSpace=wrap;html=1;labelBackgroundColor=none;fillColor=#d5e8d4;strokeColor=#82b366;" parent="284Kl3MK39Rh_IGzR82f-1" vertex="1">
          <mxGeometry x="813.75" y="210" width="102.5" height="30" as="geometry" />
        </mxCell>
        <mxCell id="2PmmHMX1RF9NsNLcKvbn-80" value="" style="rounded=0;whiteSpace=wrap;html=1;labelBackgroundColor=none;fillColor=#f8cecc;strokeColor=#b85450;" parent="284Kl3MK39Rh_IGzR82f-1" vertex="1">
          <mxGeometry x="30" y="330" width="980" height="240" as="geometry" />
        </mxCell>
        <mxCell id="2PmmHMX1RF9NsNLcKvbn-81" value="group（仓储组）" style="rounded=1;whiteSpace=wrap;html=1;labelBackgroundColor=none;fillColor=#ffe6cc;strokeColor=#d79b00;" parent="284Kl3MK39Rh_IGzR82f-1" vertex="1">
          <mxGeometry x="65" y="320" width="115" height="30" as="geometry" />
        </mxCell>
        <mxCell id="2PmmHMX1RF9NsNLcKvbn-82" value="" style="rounded=0;whiteSpace=wrap;html=1;labelBackgroundColor=none;fillColor=#e1d5e7;strokeColor=#9673a6;" parent="284Kl3MK39Rh_IGzR82f-1" vertex="1">
          <mxGeometry x="60" y="370" width="440" height="180" as="geometry" />
        </mxCell>
        <mxCell id="2PmmHMX1RF9NsNLcKvbn-83" value="service（库存）" style="rounded=1;whiteSpace=wrap;html=1;labelBackgroundColor=none;fillColor=#ffe6cc;strokeColor=#d79b00;" parent="284Kl3MK39Rh_IGzR82f-1" vertex="1">
          <mxGeometry x="100" y="360" width="110" height="30" as="geometry" />
        </mxCell>
        <mxCell id="2PmmHMX1RF9NsNLcKvbn-84" value="" style="rounded=0;whiteSpace=wrap;html=1;labelBackgroundColor=none;fillColor=#dae8fc;strokeColor=#6c8ebf;" parent="284Kl3MK39Rh_IGzR82f-1" vertex="1">
          <mxGeometry x="100" y="420" width="170" height="110" as="geometry" />
        </mxCell>
        <mxCell id="2PmmHMX1RF9NsNLcKvbn-85" value="cluster（SH）" style="rounded=1;whiteSpace=wrap;html=1;labelBackgroundColor=none;fillColor=#ffe6cc;strokeColor=#d79b00;" parent="284Kl3MK39Rh_IGzR82f-1" vertex="1">
          <mxGeometry x="140" y="400" width="90" height="30" as="geometry" />
        </mxCell>
        <mxCell id="2PmmHMX1RF9NsNLcKvbn-86" value="instance-stock-1" style="rounded=0;whiteSpace=wrap;html=1;labelBackgroundColor=none;fillColor=#d5e8d4;strokeColor=#82b366;" parent="284Kl3MK39Rh_IGzR82f-1" vertex="1">
          <mxGeometry x="133.75" y="445" width="102.5" height="30" as="geometry" />
        </mxCell>
        <mxCell id="2PmmHMX1RF9NsNLcKvbn-87" value="instance-stock-2" style="rounded=0;whiteSpace=wrap;html=1;labelBackgroundColor=none;fillColor=#d5e8d4;strokeColor=#82b366;" parent="284Kl3MK39Rh_IGzR82f-1" vertex="1">
          <mxGeometry x="133.75" y="490" width="102.5" height="30" as="geometry" />
        </mxCell>
        <mxCell id="2PmmHMX1RF9NsNLcKvbn-88" value="" style="rounded=0;whiteSpace=wrap;html=1;labelBackgroundColor=none;fillColor=#dae8fc;strokeColor=#6c8ebf;" parent="284Kl3MK39Rh_IGzR82f-1" vertex="1">
          <mxGeometry x="300" y="420" width="170" height="110" as="geometry" />
        </mxCell>
        <mxCell id="2PmmHMX1RF9NsNLcKvbn-89" value="cluster（BJ）" style="rounded=1;whiteSpace=wrap;html=1;labelBackgroundColor=none;fillColor=#ffe6cc;strokeColor=#d79b00;" parent="284Kl3MK39Rh_IGzR82f-1" vertex="1">
          <mxGeometry x="340" y="400" width="90" height="30" as="geometry" />
        </mxCell>
        <mxCell id="2PmmHMX1RF9NsNLcKvbn-90" value="instance-stock-3" style="rounded=0;whiteSpace=wrap;html=1;labelBackgroundColor=none;fillColor=#d5e8d4;strokeColor=#82b366;" parent="284Kl3MK39Rh_IGzR82f-1" vertex="1">
          <mxGeometry x="333.75" y="445" width="102.5" height="30" as="geometry" />
        </mxCell>
        <mxCell id="2PmmHMX1RF9NsNLcKvbn-91" value="instance-stock-4" style="rounded=0;whiteSpace=wrap;html=1;labelBackgroundColor=none;fillColor=#d5e8d4;strokeColor=#82b366;" parent="284Kl3MK39Rh_IGzR82f-1" vertex="1">
          <mxGeometry x="333.75" y="490" width="102.5" height="30" as="geometry" />
        </mxCell>
        <mxCell id="2PmmHMX1RF9NsNLcKvbn-92" value="" style="rounded=0;whiteSpace=wrap;html=1;labelBackgroundColor=none;fillColor=#e1d5e7;strokeColor=#9673a6;" parent="284Kl3MK39Rh_IGzR82f-1" vertex="1">
          <mxGeometry x="540" y="370" width="440" height="180" as="geometry" />
        </mxCell>
        <mxCell id="2PmmHMX1RF9NsNLcKvbn-93" value="service（物流）" style="rounded=1;whiteSpace=wrap;html=1;labelBackgroundColor=none;fillColor=#ffe6cc;strokeColor=#d79b00;" parent="284Kl3MK39Rh_IGzR82f-1" vertex="1">
          <mxGeometry x="580" y="360" width="110" height="30" as="geometry" />
        </mxCell>
        <mxCell id="2PmmHMX1RF9NsNLcKvbn-94" value="" style="rounded=0;whiteSpace=wrap;html=1;labelBackgroundColor=none;fillColor=#dae8fc;strokeColor=#6c8ebf;" parent="284Kl3MK39Rh_IGzR82f-1" vertex="1">
          <mxGeometry x="580" y="420" width="170" height="110" as="geometry" />
        </mxCell>
        <mxCell id="2PmmHMX1RF9NsNLcKvbn-95" value="cluster（SH）" style="rounded=1;whiteSpace=wrap;html=1;labelBackgroundColor=none;fillColor=#ffe6cc;strokeColor=#d79b00;" parent="284Kl3MK39Rh_IGzR82f-1" vertex="1">
          <mxGeometry x="620" y="400" width="90" height="30" as="geometry" />
        </mxCell>
        <mxCell id="2PmmHMX1RF9NsNLcKvbn-96" value="instance-logistic-1" style="rounded=0;whiteSpace=wrap;html=1;labelBackgroundColor=none;fillColor=#d5e8d4;strokeColor=#82b366;" parent="284Kl3MK39Rh_IGzR82f-1" vertex="1">
          <mxGeometry x="613.75" y="445" width="102.5" height="30" as="geometry" />
        </mxCell>
        <mxCell id="2PmmHMX1RF9NsNLcKvbn-97" value="instance-logistic-2" style="rounded=0;whiteSpace=wrap;html=1;labelBackgroundColor=none;fillColor=#d5e8d4;strokeColor=#82b366;" parent="284Kl3MK39Rh_IGzR82f-1" vertex="1">
          <mxGeometry x="613.75" y="490" width="102.5" height="30" as="geometry" />
        </mxCell>
        <mxCell id="2PmmHMX1RF9NsNLcKvbn-98" value="" style="rounded=0;whiteSpace=wrap;html=1;labelBackgroundColor=none;fillColor=#dae8fc;strokeColor=#6c8ebf;" parent="284Kl3MK39Rh_IGzR82f-1" vertex="1">
          <mxGeometry x="780" y="420" width="170" height="110" as="geometry" />
        </mxCell>
        <mxCell id="2PmmHMX1RF9NsNLcKvbn-99" value="cluster（BJ）" style="rounded=1;whiteSpace=wrap;html=1;labelBackgroundColor=none;fillColor=#ffe6cc;strokeColor=#d79b00;" parent="284Kl3MK39Rh_IGzR82f-1" vertex="1">
          <mxGeometry x="820" y="400" width="90" height="30" as="geometry" />
        </mxCell>
        <mxCell id="2PmmHMX1RF9NsNLcKvbn-100" value="instance-logistic-3" style="rounded=0;whiteSpace=wrap;html=1;labelBackgroundColor=none;fillColor=#d5e8d4;strokeColor=#82b366;" parent="284Kl3MK39Rh_IGzR82f-1" vertex="1">
          <mxGeometry x="813.75" y="445" width="102.5" height="30" as="geometry" />
        </mxCell>
        <mxCell id="2PmmHMX1RF9NsNLcKvbn-101" value="instance-logistic-4" style="rounded=0;whiteSpace=wrap;html=1;labelBackgroundColor=none;fillColor=#d5e8d4;strokeColor=#82b366;" parent="284Kl3MK39Rh_IGzR82f-1" vertex="1">
          <mxGeometry x="813.75" y="490" width="102.5" height="30" as="geometry" />
        </mxCell>
        <mxCell id="284Kl3MK39Rh_IGzR82f-43" style="edgeStyle=orthogonalEdgeStyle;rounded=0;orthogonalLoop=1;jettySize=auto;html=1;exitX=0;exitY=0.75;exitDx=0;exitDy=0;entryX=0.75;entryY=0;entryDx=0;entryDy=0;labelBackgroundColor=none;fontSize=13;fontColor=#000000;startArrow=none;startFill=0;" edge="1" parent="1" source="284Kl3MK39Rh_IGzR82f-2" target="284Kl3MK39Rh_IGzR82f-8">
          <mxGeometry relative="1" as="geometry" />
        </mxCell>
        <mxCell id="284Kl3MK39Rh_IGzR82f-44" value="定时拉取&lt;br&gt;服务列表" style="edgeLabel;html=1;align=center;verticalAlign=middle;resizable=0;points=[];fontSize=13;fontColor=#000000;" vertex="1" connectable="0" parent="284Kl3MK39Rh_IGzR82f-43">
          <mxGeometry x="0.6145" y="3" relative="1" as="geometry">
            <mxPoint as="offset" />
          </mxGeometry>
        </mxCell>
        <mxCell id="284Kl3MK39Rh_IGzR82f-45" style="edgeStyle=orthogonalEdgeStyle;rounded=0;orthogonalLoop=1;jettySize=auto;html=1;exitX=0;exitY=0.25;exitDx=0;exitDy=0;entryX=0.25;entryY=0;entryDx=0;entryDy=0;labelBackgroundColor=none;fontSize=13;fontColor=#000000;startArrow=none;startFill=0;" edge="1" parent="1" source="284Kl3MK39Rh_IGzR82f-2" target="284Kl3MK39Rh_IGzR82f-8">
          <mxGeometry relative="1" as="geometry" />
        </mxCell>
        <mxCell id="284Kl3MK39Rh_IGzR82f-46" value="服务发现" style="edgeLabel;html=1;align=center;verticalAlign=middle;resizable=0;points=[];fontSize=13;fontColor=#000000;" vertex="1" connectable="0" parent="284Kl3MK39Rh_IGzR82f-45">
          <mxGeometry x="0.3881" y="-2" relative="1" as="geometry">
            <mxPoint as="offset" />
          </mxGeometry>
        </mxCell>
        <mxCell id="284Kl3MK39Rh_IGzR82f-2" value="服务注册中心&lt;br&gt;&lt;br&gt;&lt;div style=&quot;text-align: left;&quot;&gt;order-service: [localhost:9000]&lt;/div&gt;&lt;div style=&quot;text-align: left;&quot;&gt;stock-service: [localhost:9001,&amp;nbsp;localhost:9002]&lt;/div&gt;&lt;span style=&quot;&quot;&gt;&lt;div style=&quot;text-align: left;&quot;&gt;wsm-service: [localhost:9003]&lt;/div&gt;&lt;/span&gt;" style="rounded=0;whiteSpace=wrap;html=1;labelBackgroundColor=none;fontSize=13;fillColor=#b0e3e6;strokeColor=#0e8088;" vertex="1" parent="1">
          <mxGeometry x="-660" y="200" width="290" height="120" as="geometry" />
        </mxCell>
        <mxCell id="284Kl3MK39Rh_IGzR82f-3" value="定时心跳检查任务" style="rounded=0;whiteSpace=wrap;html=1;labelBackgroundColor=none;fontSize=13;fillColor=#cdeb8b;strokeColor=#36393d;" vertex="1" parent="1">
          <mxGeometry x="-700" y="305" width="120" height="30" as="geometry" />
        </mxCell>
        <mxCell id="284Kl3MK39Rh_IGzR82f-4" value="集群数据同步任务" style="rounded=0;whiteSpace=wrap;html=1;labelBackgroundColor=none;fontSize=13;fillColor=#cdeb8b;strokeColor=#36393d;" vertex="1" parent="1">
          <mxGeometry x="-450" y="305" width="120" height="30" as="geometry" />
        </mxCell>
        <mxCell id="284Kl3MK39Rh_IGzR82f-6" value="OPEN API" style="rounded=0;whiteSpace=wrap;html=1;labelBackgroundColor=none;fontSize=13;fillColor=#ffff88;strokeColor=#36393d;" vertex="1" parent="1">
          <mxGeometry x="-561.5" y="305" width="93" height="30" as="geometry" />
        </mxCell>
        <mxCell id="284Kl3MK39Rh_IGzR82f-7" value="&lt;font color=&quot;#000000&quot;&gt;订单系统&lt;br&gt;order-service:9000&lt;br&gt;&lt;/font&gt;" style="rounded=0;whiteSpace=wrap;html=1;labelBackgroundColor=none;fontSize=13;fillColor=#eeeeee;strokeColor=#36393d;" vertex="1" parent="1">
          <mxGeometry x="-915" y="460" width="120" height="70" as="geometry" />
        </mxCell>
        <mxCell id="284Kl3MK39Rh_IGzR82f-8" value="nacos client" style="rounded=0;whiteSpace=wrap;html=1;labelBackgroundColor=none;fontSize=13;fillColor=#ffcc99;strokeColor=#36393d;" vertex="1" parent="1">
          <mxGeometry x="-901.5" y="440" width="93" height="30" as="geometry" />
        </mxCell>
        <mxCell id="284Kl3MK39Rh_IGzR82f-37" style="edgeStyle=orthogonalEdgeStyle;rounded=0;orthogonalLoop=1;jettySize=auto;html=1;exitX=0.75;exitY=0;exitDx=0;exitDy=0;entryX=0;entryY=0.5;entryDx=0;entryDy=0;labelBackgroundColor=none;fontSize=13;fontColor=#000000;startArrow=none;startFill=0;" edge="1" parent="1" source="284Kl3MK39Rh_IGzR82f-9" target="284Kl3MK39Rh_IGzR82f-12">
          <mxGeometry relative="1" as="geometry" />
        </mxCell>
        <mxCell id="284Kl3MK39Rh_IGzR82f-38" value="减库存" style="edgeLabel;html=1;align=center;verticalAlign=middle;resizable=0;points=[];fontSize=13;fontColor=#000000;" vertex="1" connectable="0" parent="284Kl3MK39Rh_IGzR82f-37">
          <mxGeometry x="-0.1116" y="-1" relative="1" as="geometry">
            <mxPoint as="offset" />
          </mxGeometry>
        </mxCell>
        <mxCell id="284Kl3MK39Rh_IGzR82f-39" style="edgeStyle=orthogonalEdgeStyle;rounded=0;orthogonalLoop=1;jettySize=auto;html=1;exitX=0.75;exitY=1;exitDx=0;exitDy=0;entryX=0;entryY=0.5;entryDx=0;entryDy=0;labelBackgroundColor=none;fontSize=13;fontColor=#000000;startArrow=none;startFill=0;" edge="1" parent="1" source="284Kl3MK39Rh_IGzR82f-9" target="284Kl3MK39Rh_IGzR82f-15">
          <mxGeometry relative="1" as="geometry" />
        </mxCell>
        <mxCell id="284Kl3MK39Rh_IGzR82f-40" value="发货" style="edgeLabel;html=1;align=center;verticalAlign=middle;resizable=0;points=[];fontSize=13;fontColor=#000000;" vertex="1" connectable="0" parent="284Kl3MK39Rh_IGzR82f-39">
          <mxGeometry x="0.1939" relative="1" as="geometry">
            <mxPoint as="offset" />
          </mxGeometry>
        </mxCell>
        <mxCell id="284Kl3MK39Rh_IGzR82f-41" style="edgeStyle=orthogonalEdgeStyle;rounded=0;orthogonalLoop=1;jettySize=auto;html=1;exitX=1;exitY=0.5;exitDx=0;exitDy=0;entryX=0;entryY=0.5;entryDx=0;entryDy=0;labelBackgroundColor=none;fontSize=13;fontColor=#000000;startArrow=none;startFill=0;" edge="1" parent="1" source="284Kl3MK39Rh_IGzR82f-9" target="284Kl3MK39Rh_IGzR82f-31">
          <mxGeometry relative="1" as="geometry" />
        </mxCell>
        <mxCell id="284Kl3MK39Rh_IGzR82f-42" value="减库存" style="edgeLabel;html=1;align=center;verticalAlign=middle;resizable=0;points=[];fontSize=13;fontColor=#000000;" vertex="1" connectable="0" parent="284Kl3MK39Rh_IGzR82f-41">
          <mxGeometry x="-0.4512" y="1" relative="1" as="geometry">
            <mxPoint as="offset" />
          </mxGeometry>
        </mxCell>
        <mxCell id="284Kl3MK39Rh_IGzR82f-48" style="edgeStyle=orthogonalEdgeStyle;rounded=0;orthogonalLoop=1;jettySize=auto;html=1;exitX=0;exitY=0.75;exitDx=0;exitDy=0;entryX=0.25;entryY=0;entryDx=0;entryDy=0;labelBackgroundColor=none;fontSize=13;fontColor=#000000;startArrow=none;startFill=0;" edge="1" parent="1" source="284Kl3MK39Rh_IGzR82f-9" target="284Kl3MK39Rh_IGzR82f-10">
          <mxGeometry relative="1" as="geometry" />
        </mxCell>
        <mxCell id="284Kl3MK39Rh_IGzR82f-49" value="本地注册表" style="edgeLabel;html=1;align=center;verticalAlign=middle;resizable=0;points=[];fontSize=13;fontColor=#000000;" vertex="1" connectable="0" parent="284Kl3MK39Rh_IGzR82f-48">
          <mxGeometry x="0.5067" relative="1" as="geometry">
            <mxPoint as="offset" />
          </mxGeometry>
        </mxCell>
        <mxCell id="284Kl3MK39Rh_IGzR82f-9" value="Ribbon" style="rounded=0;whiteSpace=wrap;html=1;labelBackgroundColor=none;fontSize=13;fillColor=#ffcccc;strokeColor=#36393d;" vertex="1" parent="1">
          <mxGeometry x="-840" y="515" width="93" height="30" as="geometry" />
        </mxCell>
        <mxCell id="284Kl3MK39Rh_IGzR82f-10" value="注册表&lt;br&gt;&lt;br&gt;&lt;div style=&quot;text-align: left;&quot;&gt;order-service: [localhost:9000]&lt;/div&gt;&lt;div style=&quot;text-align: left;&quot;&gt;stock-service: [localhost:9001,&amp;nbsp;localhost:9002]&lt;/div&gt;&lt;div style=&quot;text-align: left;&quot;&gt;wsm-service: [localhost:9003]&lt;/div&gt;" style="shape=document;whiteSpace=wrap;html=1;boundedLbl=1;labelBackgroundColor=none;fontSize=13;spacing=10;fillColor=#fff2cc;strokeColor=#d6b656;" vertex="1" parent="1">
          <mxGeometry x="-1000" y="600" width="290" height="130" as="geometry" />
        </mxCell>
        <mxCell id="284Kl3MK39Rh_IGzR82f-12" value="&lt;font color=&quot;#000000&quot;&gt;库存系统&lt;br&gt;user-service:9001&lt;br&gt;&lt;/font&gt;user-service:9002" style="rounded=0;whiteSpace=wrap;html=1;labelBackgroundColor=none;fontSize=13;fillColor=#eeeeee;strokeColor=#36393d;" vertex="1" parent="1">
          <mxGeometry x="-340" y="455" width="120" height="70" as="geometry" />
        </mxCell>
        <mxCell id="284Kl3MK39Rh_IGzR82f-18" style="edgeStyle=orthogonalEdgeStyle;rounded=0;orthogonalLoop=1;jettySize=auto;html=1;exitX=0.5;exitY=0;exitDx=0;exitDy=0;entryX=1;entryY=0.75;entryDx=0;entryDy=0;labelBackgroundColor=none;fontSize=13;fontColor=#000000;startArrow=none;startFill=0;" edge="1" parent="1" source="284Kl3MK39Rh_IGzR82f-13" target="284Kl3MK39Rh_IGzR82f-2">
          <mxGeometry relative="1" as="geometry" />
        </mxCell>
        <mxCell id="284Kl3MK39Rh_IGzR82f-19" value="服务注册&lt;br&gt;定时心跳（5s）" style="edgeLabel;html=1;align=center;verticalAlign=middle;resizable=0;points=[];fontSize=13;fontColor=#000000;" vertex="1" connectable="0" parent="284Kl3MK39Rh_IGzR82f-18">
          <mxGeometry x="-0.4128" y="1" relative="1" as="geometry">
            <mxPoint as="offset" />
          </mxGeometry>
        </mxCell>
        <mxCell id="284Kl3MK39Rh_IGzR82f-13" value="nacos client" style="rounded=0;whiteSpace=wrap;html=1;labelBackgroundColor=none;fontSize=13;fillColor=#ffcc99;strokeColor=#36393d;" vertex="1" parent="1">
          <mxGeometry x="-326.5" y="435" width="93" height="30" as="geometry" />
        </mxCell>
        <mxCell id="284Kl3MK39Rh_IGzR82f-14" value="心跳任务" style="rounded=0;whiteSpace=wrap;html=1;labelBackgroundColor=none;fontSize=13;fillColor=#cdeb8b;strokeColor=#36393d;" vertex="1" parent="1">
          <mxGeometry x="-315" y="515" width="70" height="30" as="geometry" />
        </mxCell>
        <mxCell id="284Kl3MK39Rh_IGzR82f-15" value="&lt;font color=&quot;#000000&quot;&gt;仓储系统&lt;br&gt;wsm-service:9003&lt;/font&gt;" style="rounded=0;whiteSpace=wrap;html=1;labelBackgroundColor=none;fontSize=13;fillColor=#eeeeee;strokeColor=#36393d;" vertex="1" parent="1">
          <mxGeometry x="-340" y="705" width="120" height="70" as="geometry" />
        </mxCell>
        <mxCell id="284Kl3MK39Rh_IGzR82f-25" style="edgeStyle=orthogonalEdgeStyle;rounded=0;orthogonalLoop=1;jettySize=auto;html=1;exitX=1;exitY=0.5;exitDx=0;exitDy=0;labelBackgroundColor=none;fontSize=13;fontColor=#000000;startArrow=none;startFill=0;entryX=1;entryY=0.25;entryDx=0;entryDy=0;" edge="1" parent="1" source="284Kl3MK39Rh_IGzR82f-16" target="284Kl3MK39Rh_IGzR82f-2">
          <mxGeometry relative="1" as="geometry">
            <mxPoint x="-270" y="260" as="targetPoint" />
            <Array as="points">
              <mxPoint x="-130" y="700" />
              <mxPoint x="-130" y="230" />
            </Array>
          </mxGeometry>
        </mxCell>
        <mxCell id="284Kl3MK39Rh_IGzR82f-26" value="服务注册&lt;br&gt;定时心跳（5s）" style="edgeLabel;html=1;align=center;verticalAlign=middle;resizable=0;points=[];fontSize=13;fontColor=#000000;" vertex="1" connectable="0" parent="284Kl3MK39Rh_IGzR82f-25">
          <mxGeometry x="-0.3654" relative="1" as="geometry">
            <mxPoint x="10" y="85" as="offset" />
          </mxGeometry>
        </mxCell>
        <mxCell id="284Kl3MK39Rh_IGzR82f-16" value="nacos client" style="rounded=0;whiteSpace=wrap;html=1;labelBackgroundColor=none;fontSize=13;fillColor=#ffcc99;strokeColor=#36393d;" vertex="1" parent="1">
          <mxGeometry x="-326.5" y="685" width="93" height="30" as="geometry" />
        </mxCell>
        <mxCell id="284Kl3MK39Rh_IGzR82f-17" value="心跳任务" style="rounded=0;whiteSpace=wrap;html=1;labelBackgroundColor=none;fontSize=13;fillColor=#cdeb8b;strokeColor=#36393d;" vertex="1" parent="1">
          <mxGeometry x="-315" y="765" width="70" height="30" as="geometry" />
        </mxCell>
        <mxCell id="284Kl3MK39Rh_IGzR82f-31" value="&lt;font color=&quot;#000000&quot;&gt;库存系统&lt;br&gt;user-service:9001&lt;br&gt;&lt;/font&gt;user-service:9002" style="rounded=0;whiteSpace=wrap;html=1;labelBackgroundColor=none;fontSize=13;fillColor=#eeeeee;strokeColor=#36393d;" vertex="1" parent="1">
          <mxGeometry x="-340" y="580" width="120" height="70" as="geometry" />
        </mxCell>
        <mxCell id="284Kl3MK39Rh_IGzR82f-35" style="edgeStyle=orthogonalEdgeStyle;rounded=0;orthogonalLoop=1;jettySize=auto;html=1;exitX=1;exitY=0.5;exitDx=0;exitDy=0;entryX=1;entryY=0.5;entryDx=0;entryDy=0;labelBackgroundColor=none;fontSize=13;fontColor=#000000;startArrow=none;startFill=0;" edge="1" parent="1" source="284Kl3MK39Rh_IGzR82f-32" target="284Kl3MK39Rh_IGzR82f-2">
          <mxGeometry relative="1" as="geometry">
            <Array as="points">
              <mxPoint x="-190" y="575" />
              <mxPoint x="-190" y="260" />
            </Array>
          </mxGeometry>
        </mxCell>
        <mxCell id="284Kl3MK39Rh_IGzR82f-36" value="服务注册&lt;br&gt;定时心跳（5s）" style="edgeLabel;html=1;align=center;verticalAlign=middle;resizable=0;points=[];fontSize=13;fontColor=#000000;" vertex="1" connectable="0" parent="284Kl3MK39Rh_IGzR82f-35">
          <mxGeometry x="-0.0028" y="2" relative="1" as="geometry">
            <mxPoint y="-30" as="offset" />
          </mxGeometry>
        </mxCell>
        <mxCell id="284Kl3MK39Rh_IGzR82f-32" value="nacos client" style="rounded=0;whiteSpace=wrap;html=1;labelBackgroundColor=none;fontSize=13;fillColor=#ffcc99;strokeColor=#36393d;" vertex="1" parent="1">
          <mxGeometry x="-326.5" y="560" width="93" height="30" as="geometry" />
        </mxCell>
        <mxCell id="284Kl3MK39Rh_IGzR82f-33" value="心跳任务" style="rounded=0;whiteSpace=wrap;html=1;labelBackgroundColor=none;fontSize=13;fillColor=#cdeb8b;strokeColor=#36393d;" vertex="1" parent="1">
          <mxGeometry x="-315" y="640" width="70" height="30" as="geometry" />
        </mxCell>
      </root>
    </mxGraphModel>
  </diagram>
</mxfile>
